solid mases_like_50
   facet normal -1.000000e+000 -7.105427e-016 0.000000e+000
      outer loop
         vertex -5.000000e+000 8.000000e+000 1.000000e-002
         vertex -5.000000e+000 1.300000e+001 1.000000e-002
         vertex -5.000000e+000 8.000000e+000 0.000000e+000
      endloop
   endfacet
   facet normal -1.000000e+000 -7.105427e-016 0.000000e+000
      outer loop
         vertex -5.000000e+000 8.000000e+000 0.000000e+000
         vertex -5.000000e+000 1.300000e+001 1.000000e-002
         vertex -5.000000e+000 1.300000e+001 0.000000e+000
      endloop
   endfacet
   facet normal 0.000000e+000 -1.000000e+000 0.000000e+000
      outer loop
         vertex -4.800000e+000 8.000000e+000 1.000000e-002
         vertex -5.000000e+000 8.000000e+000 1.000000e-002
         vertex -4.800000e+000 8.000000e+000 0.000000e+000
      endloop
   endfacet
   facet normal 0.000000e+000 -1.000000e+000 0.000000e+000
      outer loop
         vertex -4.800000e+000 8.000000e+000 0.000000e+000
         vertex -5.000000e+000 8.000000e+000 1.000000e-002
         vertex -5.000000e+000 8.000000e+000 0.000000e+000
      endloop
   endfacet
   facet normal 1.000000e+000 7.105427e-016 0.000000e+000
      outer loop
         vertex -4.800000e+000 1.320000e+001 1.000000e-002
         vertex -4.800000e+000 8.000000e+000 1.000000e-002
         vertex -4.800000e+000 1.320000e+001 0.000000e+000
      endloop
   endfacet
   facet normal 1.000000e+000 7.105427e-016 0.000000e+000
      outer loop
         vertex -4.800000e+000 1.320000e+001 0.000000e+000
         vertex -4.800000e+000 8.000000e+000 1.000000e-002
         vertex -4.800000e+000 8.000000e+000 0.000000e+000
      endloop
   endfacet
   facet normal 2.368476e-016 1.000000e+000 0.000000e+000
      outer loop
         vertex -2.000000e+001 1.320000e+001 1.000000e-002
         vertex -4.800000e+000 1.320000e+001 1.000000e-002
         vertex -2.000000e+001 1.320000e+001 0.000000e+000
      endloop
   endfacet
   facet normal 2.368476e-016 1.000000e+000 0.000000e+000
      outer loop
         vertex -2.000000e+001 1.320000e+001 0.000000e+000
         vertex -4.800000e+000 1.320000e+001 1.000000e-002
         vertex -4.800000e+000 1.320000e+001 0.000000e+000
      endloop
   endfacet
   facet normal -1.000000e+000 0.000000e+000 0.000000e+000
      outer loop
         vertex -2.000000e+001 1.300000e+001 1.000000e-002
         vertex -2.000000e+001 1.320000e+001 1.000000e-002
         vertex -2.000000e+001 1.300000e+001 0.000000e+000
      endloop
   endfacet
   facet normal -1.000000e+000 0.000000e+000 0.000000e+000
      outer loop
         vertex -2.000000e+001 1.300000e+001 0.000000e+000
         vertex -2.000000e+001 1.320000e+001 1.000000e-002
         vertex -2.000000e+001 1.320000e+001 0.000000e+000
      endloop
   endfacet
   facet normal -2.368476e-016 -1.000000e+000 0.000000e+000
      outer loop
         vertex -5.000000e+000 1.300000e+001 1.000000e-002
         vertex -2.000000e+001 1.300000e+001 1.000000e-002
         vertex -5.000000e+000 1.300000e+001 0.000000e+000
      endloop
   endfacet
   facet normal -2.368476e-016 -1.000000e+000 0.000000e+000
      outer loop
         vertex -5.000000e+000 1.300000e+001 0.000000e+000
         vertex -2.000000e+001 1.300000e+001 1.000000e-002
         vertex -2.000000e+001 1.300000e+001 0.000000e+000
      endloop
   endfacet
   facet normal 0.000000e+000 0.000000e+000 1.000000e+000
      outer loop
         vertex -5.000000e+000 8.000000e+000 1.000000e-002
         vertex -4.800000e+000 8.000000e+000 1.000000e-002
         vertex -5.000000e+000 1.300000e+001 1.000000e-002
      endloop
   endfacet
   facet normal 0.000000e+000 0.000000e+000 1.000000e+000
      outer loop
         vertex -5.000000e+000 1.300000e+001 1.000000e-002
         vertex -4.800000e+000 8.000000e+000 1.000000e-002
         vertex -4.800000e+000 1.320000e+001 1.000000e-002
      endloop
   endfacet
   facet normal 0.000000e+000 0.000000e+000 1.000000e+000
      outer loop
         vertex -5.000000e+000 1.300000e+001 1.000000e-002
         vertex -4.800000e+000 1.320000e+001 1.000000e-002
         vertex -2.000000e+001 1.300000e+001 1.000000e-002
      endloop
   endfacet
   facet normal 0.000000e+000 0.000000e+000 1.000000e+000
      outer loop
         vertex -2.000000e+001 1.300000e+001 1.000000e-002
         vertex -4.800000e+000 1.320000e+001 1.000000e-002
         vertex -2.000000e+001 1.320000e+001 1.000000e-002
      endloop
   endfacet
   facet normal 0.000000e+000 0.000000e+000 -1.000000e+000
      outer loop
         vertex -2.000000e+001 1.300000e+001 0.000000e+000
         vertex -2.000000e+001 1.320000e+001 0.000000e+000
         vertex -5.000000e+000 1.300000e+001 0.000000e+000
      endloop
   endfacet
   facet normal 0.000000e+000 0.000000e+000 -1.000000e+000
      outer loop
         vertex -5.000000e+000 1.300000e+001 0.000000e+000
         vertex -2.000000e+001 1.320000e+001 0.000000e+000
         vertex -4.800000e+000 1.320000e+001 0.000000e+000
      endloop
   endfacet
   facet normal 0.000000e+000 0.000000e+000 -1.000000e+000
      outer loop
         vertex -5.000000e+000 1.300000e+001 0.000000e+000
         vertex -4.800000e+000 1.320000e+001 0.000000e+000
         vertex -5.000000e+000 8.000000e+000 0.000000e+000
      endloop
   endfacet
   facet normal 0.000000e+000 0.000000e+000 -1.000000e+000
      outer loop
         vertex -5.000000e+000 8.000000e+000 0.000000e+000
         vertex -4.800000e+000 1.320000e+001 0.000000e+000
         vertex -4.800000e+000 8.000000e+000 0.000000e+000
      endloop
   endfacet
   facet normal 0.000000e+000 1.000000e+000 0.000000e+000
      outer loop
         vertex -9.000000e+000 -9.000000e+000 1.000000e-002
         vertex 0.000000e+000 -9.000000e+000 1.000000e-002
         vertex -9.000000e+000 -9.000000e+000 0.000000e+000
      endloop
   endfacet
   facet normal 0.000000e+000 1.000000e+000 0.000000e+000
      outer loop
         vertex -9.000000e+000 -9.000000e+000 0.000000e+000
         vertex 0.000000e+000 -9.000000e+000 1.000000e-002
         vertex 0.000000e+000 -9.000000e+000 0.000000e+000
      endloop
   endfacet
   facet normal -1.000000e+000 0.000000e+000 0.000000e+000
      outer loop
         vertex -9.000000e+000 -9.200000e+000 1.000000e-002
         vertex -9.000000e+000 -9.000000e+000 1.000000e-002
         vertex -9.000000e+000 -9.200000e+000 0.000000e+000
      endloop
   endfacet
   facet normal -1.000000e+000 0.000000e+000 0.000000e+000
      outer loop
         vertex -9.000000e+000 -9.200000e+000 0.000000e+000
         vertex -9.000000e+000 -9.000000e+000 1.000000e-002
         vertex -9.000000e+000 -9.000000e+000 0.000000e+000
      endloop
   endfacet
   facet normal 0.000000e+000 -1.000000e+000 0.000000e+000
      outer loop
         vertex -2.000000e-001 -9.200000e+000 1.000000e-002
         vertex -9.000000e+000 -9.200000e+000 1.000000e-002
         vertex -2.000000e-001 -9.200000e+000 0.000000e+000
      endloop
   endfacet
   facet normal 0.000000e+000 -1.000000e+000 0.000000e+000
      outer loop
         vertex -2.000000e-001 -9.200000e+000 0.000000e+000
         vertex -9.000000e+000 -9.200000e+000 1.000000e-002
         vertex -9.000000e+000 -9.200000e+000 0.000000e+000
      endloop
   endfacet
   facet normal -1.000000e+000 0.000000e+000 0.000000e+000
      outer loop
         vertex -2.000000e-001 -1.620000e+001 1.000000e-002
         vertex -2.000000e-001 -9.200000e+000 1.000000e-002
         vertex -2.000000e-001 -1.620000e+001 0.000000e+000
      endloop
   endfacet
   facet normal -1.000000e+000 0.000000e+000 0.000000e+000
      outer loop
         vertex -2.000000e-001 -1.620000e+001 0.000000e+000
         vertex -2.000000e-001 -9.200000e+000 1.000000e-002
         vertex -2.000000e-001 -9.200000e+000 0.000000e+000
      endloop
   endfacet
   facet normal 2.960595e-016 -1.000000e+000 0.000000e+000
      outer loop
         vertex 1.220000e+001 -1.620000e+001 1.000000e-002
         vertex -2.000000e-001 -1.620000e+001 1.000000e-002
         vertex 1.220000e+001 -1.620000e+001 0.000000e+000
      endloop
   endfacet
   facet normal 2.960595e-016 -1.000000e+000 0.000000e+000
      outer loop
         vertex 1.220000e+001 -1.620000e+001 0.000000e+000
         vertex -2.000000e-001 -1.620000e+001 1.000000e-002
         vertex -2.000000e-001 -1.620000e+001 0.000000e+000
      endloop
   endfacet
   facet normal 1.000000e+000 0.000000e+000 0.000000e+000
      outer loop
         vertex 1.220000e+001 -1.000000e+001 1.000000e-002
         vertex 1.220000e+001 -1.620000e+001 1.000000e-002
         vertex 1.220000e+001 -1.000000e+001 0.000000e+000
      endloop
   endfacet
   facet normal 1.000000e+000 0.000000e+000 0.000000e+000
      outer loop
         vertex 1.220000e+001 -1.000000e+001 0.000000e+000
         vertex 1.220000e+001 -1.620000e+001 1.000000e-002
         vertex 1.220000e+001 -1.620000e+001 0.000000e+000
      endloop
   endfacet
   facet normal 0.000000e+000 1.000000e+000 0.000000e+000
      outer loop
         vertex 1.200000e+001 -1.000000e+001 1.000000e-002
         vertex 1.220000e+001 -1.000000e+001 1.000000e-002
         vertex 1.200000e+001 -1.000000e+001 0.000000e+000
      endloop
   endfacet
   facet normal 0.000000e+000 1.000000e+000 0.000000e+000
      outer loop
         vertex 1.200000e+001 -1.000000e+001 0.000000e+000
         vertex 1.220000e+001 -1.000000e+001 1.000000e-002
         vertex 1.220000e+001 -1.000000e+001 0.000000e+000
      endloop
   endfacet
   facet normal -1.000000e+000 0.000000e+000 0.000000e+000
      outer loop
         vertex 1.200000e+001 -1.600000e+001 1.000000e-002
         vertex 1.200000e+001 -1.000000e+001 1.000000e-002
         vertex 1.200000e+001 -1.600000e+001 0.000000e+000
      endloop
   endfacet
   facet normal -1.000000e+000 0.000000e+000 0.000000e+000
      outer loop
         vertex 1.200000e+001 -1.600000e+001 0.000000e+000
         vertex 1.200000e+001 -1.000000e+001 1.000000e-002
         vertex 1.200000e+001 -1.000000e+001 0.000000e+000
      endloop
   endfacet
   facet normal -2.960595e-016 1.000000e+000 0.000000e+000
      outer loop
         vertex 0.000000e+000 -1.600000e+001 1.000000e-002
         vertex 1.200000e+001 -1.600000e+001 1.000000e-002
         vertex 0.000000e+000 -1.600000e+001 0.000000e+000
      endloop
   endfacet
   facet normal -2.960595e-016 1.000000e+000 0.000000e+000
      outer loop
         vertex 0.000000e+000 -1.600000e+001 0.000000e+000
         vertex 1.200000e+001 -1.600000e+001 1.000000e-002
         vertex 1.200000e+001 -1.600000e+001 0.000000e+000
      endloop
   endfacet
   facet normal 1.000000e+000 0.000000e+000 0.000000e+000
      outer loop
         vertex 0.000000e+000 -9.000000e+000 1.000000e-002
         vertex 0.000000e+000 -1.600000e+001 1.000000e-002
         vertex 0.000000e+000 -9.000000e+000 0.000000e+000
      endloop
   endfacet
   facet normal 1.000000e+000 0.000000e+000 0.000000e+000
      outer loop
         vertex 0.000000e+000 -9.000000e+000 0.000000e+000
         vertex 0.000000e+000 -1.600000e+001 1.000000e-002
         vertex 0.000000e+000 -1.600000e+001 0.000000e+000
      endloop
   endfacet
   facet normal 0.000000e+000 0.000000e+000 1.000000e+000
      outer loop
         vertex -9.000000e+000 -9.000000e+000 1.000000e-002
         vertex -9.000000e+000 -9.200000e+000 1.000000e-002
         vertex 0.000000e+000 -9.000000e+000 1.000000e-002
      endloop
   endfacet
   facet normal 0.000000e+000 0.000000e+000 1.000000e+000
      outer loop
         vertex 0.000000e+000 -9.000000e+000 1.000000e-002
         vertex -9.000000e+000 -9.200000e+000 1.000000e-002
         vertex -2.000000e-001 -9.200000e+000 1.000000e-002
      endloop
   endfacet
   facet normal 0.000000e+000 0.000000e+000 1.000000e+000
      outer loop
         vertex 0.000000e+000 -9.000000e+000 1.000000e-002
         vertex -2.000000e-001 -9.200000e+000 1.000000e-002
         vertex 0.000000e+000 -1.600000e+001 1.000000e-002
      endloop
   endfacet
   facet normal 0.000000e+000 0.000000e+000 1.000000e+000
      outer loop
         vertex 0.000000e+000 -1.600000e+001 1.000000e-002
         vertex -2.000000e-001 -9.200000e+000 1.000000e-002
         vertex -2.000000e-001 -1.620000e+001 1.000000e-002
      endloop
   endfacet
   facet normal 0.000000e+000 0.000000e+000 1.000000e+000
      outer loop
         vertex 0.000000e+000 -1.600000e+001 1.000000e-002
         vertex -2.000000e-001 -1.620000e+001 1.000000e-002
         vertex 1.200000e+001 -1.600000e+001 1.000000e-002
      endloop
   endfacet
   facet normal 0.000000e+000 0.000000e+000 1.000000e+000
      outer loop
         vertex 1.200000e+001 -1.600000e+001 1.000000e-002
         vertex -2.000000e-001 -1.620000e+001 1.000000e-002
         vertex 1.220000e+001 -1.620000e+001 1.000000e-002
      endloop
   endfacet
   facet normal 0.000000e+000 0.000000e+000 1.000000e+000
      outer loop
         vertex 1.200000e+001 -1.600000e+001 1.000000e-002
         vertex 1.220000e+001 -1.620000e+001 1.000000e-002
         vertex 1.200000e+001 -1.000000e+001 1.000000e-002
      endloop
   endfacet
   facet normal 0.000000e+000 0.000000e+000 1.000000e+000
      outer loop
         vertex 1.200000e+001 -1.000000e+001 1.000000e-002
         vertex 1.220000e+001 -1.620000e+001 1.000000e-002
         vertex 1.220000e+001 -1.000000e+001 1.000000e-002
      endloop
   endfacet
   facet normal 0.000000e+000 0.000000e+000 -1.000000e+000
      outer loop
         vertex 1.200000e+001 -1.000000e+001 0.000000e+000
         vertex 1.220000e+001 -1.000000e+001 0.000000e+000
         vertex 1.200000e+001 -1.600000e+001 0.000000e+000
      endloop
   endfacet
   facet normal 0.000000e+000 0.000000e+000 -1.000000e+000
      outer loop
         vertex 1.200000e+001 -1.600000e+001 0.000000e+000
         vertex 1.220000e+001 -1.000000e+001 0.000000e+000
         vertex 1.220000e+001 -1.620000e+001 0.000000e+000
      endloop
   endfacet
   facet normal 0.000000e+000 0.000000e+000 -1.000000e+000
      outer loop
         vertex 1.200000e+001 -1.600000e+001 0.000000e+000
         vertex 1.220000e+001 -1.620000e+001 0.000000e+000
         vertex 0.000000e+000 -1.600000e+001 0.000000e+000
      endloop
   endfacet
   facet normal 0.000000e+000 0.000000e+000 -1.000000e+000
      outer loop
         vertex 0.000000e+000 -1.600000e+001 0.000000e+000
         vertex 1.220000e+001 -1.620000e+001 0.000000e+000
         vertex -2.000000e-001 -1.620000e+001 0.000000e+000
      endloop
   endfacet
   facet normal 0.000000e+000 0.000000e+000 -1.000000e+000
      outer loop
         vertex 0.000000e+000 -1.600000e+001 0.000000e+000
         vertex -2.000000e-001 -1.620000e+001 0.000000e+000
         vertex 0.000000e+000 -9.000000e+000 0.000000e+000
      endloop
   endfacet
   facet normal 0.000000e+000 0.000000e+000 -1.000000e+000
      outer loop
         vertex 0.000000e+000 -9.000000e+000 0.000000e+000
         vertex -2.000000e-001 -1.620000e+001 0.000000e+000
         vertex -2.000000e-001 -9.200000e+000 0.000000e+000
      endloop
   endfacet
   facet normal 0.000000e+000 0.000000e+000 -1.000000e+000
      outer loop
         vertex 0.000000e+000 -9.000000e+000 0.000000e+000
         vertex -2.000000e-001 -9.200000e+000 0.000000e+000
         vertex -9.000000e+000 -9.000000e+000 0.000000e+000
      endloop
   endfacet
   facet normal 0.000000e+000 0.000000e+000 -1.000000e+000
      outer loop
         vertex -9.000000e+000 -9.000000e+000 0.000000e+000
         vertex -2.000000e-001 -9.200000e+000 0.000000e+000
         vertex -9.000000e+000 -9.200000e+000 0.000000e+000
      endloop
   endfacet
   facet normal 1.000000e+000 0.000000e+000 0.000000e+000
      outer loop
         vertex -5.000000e+000 3.000000e+000 1.000000e-002
         vertex -5.000000e+000 -5.000000e+000 1.000000e-002
         vertex -5.000000e+000 3.000000e+000 0.000000e+000
      endloop
   endfacet
   facet normal 1.000000e+000 0.000000e+000 0.000000e+000
      outer loop
         vertex -5.000000e+000 3.000000e+000 0.000000e+000
         vertex -5.000000e+000 -5.000000e+000 1.000000e-002
         vertex -5.000000e+000 -5.000000e+000 0.000000e+000
      endloop
   endfacet
   facet normal 0.000000e+000 1.000000e+000 0.000000e+000
      outer loop
         vertex -5.200000e+000 3.000000e+000 1.000000e-002
         vertex -5.000000e+000 3.000000e+000 1.000000e-002
         vertex -5.200000e+000 3.000000e+000 0.000000e+000
      endloop
   endfacet
   facet normal 0.000000e+000 1.000000e+000 0.000000e+000
      outer loop
         vertex -5.200000e+000 3.000000e+000 0.000000e+000
         vertex -5.000000e+000 3.000000e+000 1.000000e-002
         vertex -5.000000e+000 3.000000e+000 0.000000e+000
      endloop
   endfacet
   facet normal -1.000000e+000 0.000000e+000 0.000000e+000
      outer loop
         vertex -5.200000e+000 -4.800000e+000 1.000000e-002
         vertex -5.200000e+000 3.000000e+000 1.000000e-002
         vertex -5.200000e+000 -4.800000e+000 0.000000e+000
      endloop
   endfacet
   facet normal -1.000000e+000 0.000000e+000 0.000000e+000
      outer loop
         vertex -5.200000e+000 -4.800000e+000 0.000000e+000
         vertex -5.200000e+000 3.000000e+000 1.000000e-002
         vertex -5.200000e+000 3.000000e+000 0.000000e+000
      endloop
   endfacet
   facet normal 0.000000e+000 1.000000e+000 0.000000e+000
      outer loop
         vertex -1.620000e+001 -4.800000e+000 1.000000e-002
         vertex -5.200000e+000 -4.800000e+000 1.000000e-002
         vertex -1.620000e+001 -4.800000e+000 0.000000e+000
      endloop
   endfacet
   facet normal 0.000000e+000 1.000000e+000 0.000000e+000
      outer loop
         vertex -1.620000e+001 -4.800000e+000 0.000000e+000
         vertex -5.200000e+000 -4.800000e+000 1.000000e-002
         vertex -5.200000e+000 -4.800000e+000 0.000000e+000
      endloop
   endfacet
   facet normal -1.000000e+000 0.000000e+000 0.000000e+000
      outer loop
         vertex -1.620000e+001 -1.520000e+001 1.000000e-002
         vertex -1.620000e+001 -4.800000e+000 1.000000e-002
         vertex -1.620000e+001 -1.520000e+001 0.000000e+000
      endloop
   endfacet
   facet normal -1.000000e+000 0.000000e+000 0.000000e+000
      outer loop
         vertex -1.620000e+001 -1.520000e+001 0.000000e+000
         vertex -1.620000e+001 -4.800000e+000 1.000000e-002
         vertex -1.620000e+001 -4.800000e+000 0.000000e+000
      endloop
   endfacet
   facet normal -5.281188e-016 -1.000000e+000 0.000000e+000
      outer loop
         vertex -9.272890e+000 -1.520000e+001 1.000000e-002
         vertex -1.620000e+001 -1.520000e+001 1.000000e-002
         vertex -9.272890e+000 -1.520000e+001 0.000000e+000
      endloop
   endfacet
   facet normal -5.281188e-016 -1.000000e+000 0.000000e+000
      outer loop
         vertex -9.272890e+000 -1.520000e+001 0.000000e+000
         vertex -1.620000e+001 -1.520000e+001 1.000000e-002
         vertex -1.620000e+001 -1.520000e+001 0.000000e+000
      endloop
   endfacet
   facet normal 1.000000e+000 0.000000e+000 0.000000e+000
      outer loop
         vertex -9.272890e+000 -1.500000e+001 1.000000e-002
         vertex -9.272890e+000 -1.520000e+001 1.000000e-002
         vertex -9.272890e+000 -1.500000e+001 0.000000e+000
      endloop
   endfacet
   facet normal 1.000000e+000 0.000000e+000 0.000000e+000
      outer loop
         vertex -9.272890e+000 -1.500000e+001 0.000000e+000
         vertex -9.272890e+000 -1.520000e+001 1.000000e-002
         vertex -9.272890e+000 -1.520000e+001 0.000000e+000
      endloop
   endfacet
   facet normal 5.281188e-016 1.000000e+000 0.000000e+000
      outer loop
         vertex -1.600000e+001 -1.500000e+001 1.000000e-002
         vertex -9.272890e+000 -1.500000e+001 1.000000e-002
         vertex -1.600000e+001 -1.500000e+001 0.000000e+000
      endloop
   endfacet
   facet normal 5.281188e-016 1.000000e+000 0.000000e+000
      outer loop
         vertex -1.600000e+001 -1.500000e+001 0.000000e+000
         vertex -9.272890e+000 -1.500000e+001 1.000000e-002
         vertex -9.272890e+000 -1.500000e+001 0.000000e+000
      endloop
   endfacet
   facet normal 1.000000e+000 0.000000e+000 0.000000e+000
      outer loop
         vertex -1.600000e+001 -5.000000e+000 1.000000e-002
         vertex -1.600000e+001 -1.500000e+001 1.000000e-002
         vertex -1.600000e+001 -5.000000e+000 0.000000e+000
      endloop
   endfacet
   facet normal 1.000000e+000 0.000000e+000 0.000000e+000
      outer loop
         vertex -1.600000e+001 -5.000000e+000 0.000000e+000
         vertex -1.600000e+001 -1.500000e+001 1.000000e-002
         vertex -1.600000e+001 -1.500000e+001 0.000000e+000
      endloop
   endfacet
   facet normal 0.000000e+000 -1.000000e+000 0.000000e+000
      outer loop
         vertex -5.000000e+000 -5.000000e+000 1.000000e-002
         vertex -1.600000e+001 -5.000000e+000 1.000000e-002
         vertex -5.000000e+000 -5.000000e+000 0.000000e+000
      endloop
   endfacet
   facet normal 0.000000e+000 -1.000000e+000 0.000000e+000
      outer loop
         vertex -5.000000e+000 -5.000000e+000 0.000000e+000
         vertex -1.600000e+001 -5.000000e+000 1.000000e-002
         vertex -1.600000e+001 -5.000000e+000 0.000000e+000
      endloop
   endfacet
   facet normal 0.000000e+000 0.000000e+000 1.000000e+000
      outer loop
         vertex -5.000000e+000 3.000000e+000 1.000000e-002
         vertex -5.200000e+000 3.000000e+000 1.000000e-002
         vertex -5.000000e+000 -5.000000e+000 1.000000e-002
      endloop
   endfacet
   facet normal 0.000000e+000 0.000000e+000 1.000000e+000
      outer loop
         vertex -5.000000e+000 -5.000000e+000 1.000000e-002
         vertex -5.200000e+000 3.000000e+000 1.000000e-002
         vertex -5.200000e+000 -4.800000e+000 1.000000e-002
      endloop
   endfacet
   facet normal 0.000000e+000 0.000000e+000 1.000000e+000
      outer loop
         vertex -5.000000e+000 -5.000000e+000 1.000000e-002
         vertex -5.200000e+000 -4.800000e+000 1.000000e-002
         vertex -1.600000e+001 -5.000000e+000 1.000000e-002
      endloop
   endfacet
   facet normal 0.000000e+000 0.000000e+000 1.000000e+000
      outer loop
         vertex -1.600000e+001 -5.000000e+000 1.000000e-002
         vertex -5.200000e+000 -4.800000e+000 1.000000e-002
         vertex -1.620000e+001 -4.800000e+000 1.000000e-002
      endloop
   endfacet
   facet normal 0.000000e+000 0.000000e+000 1.000000e+000
      outer loop
         vertex -1.600000e+001 -5.000000e+000 1.000000e-002
         vertex -1.620000e+001 -4.800000e+000 1.000000e-002
         vertex -1.600000e+001 -1.500000e+001 1.000000e-002
      endloop
   endfacet
   facet normal 0.000000e+000 0.000000e+000 1.000000e+000
      outer loop
         vertex -1.600000e+001 -1.500000e+001 1.000000e-002
         vertex -1.620000e+001 -4.800000e+000 1.000000e-002
         vertex -1.620000e+001 -1.520000e+001 1.000000e-002
      endloop
   endfacet
   facet normal 0.000000e+000 0.000000e+000 1.000000e+000
      outer loop
         vertex -1.600000e+001 -1.500000e+001 1.000000e-002
         vertex -1.620000e+001 -1.520000e+001 1.000000e-002
         vertex -9.272890e+000 -1.500000e+001 1.000000e-002
      endloop
   endfacet
   facet normal 0.000000e+000 0.000000e+000 1.000000e+000
      outer loop
         vertex -9.272890e+000 -1.500000e+001 1.000000e-002
         vertex -1.620000e+001 -1.520000e+001 1.000000e-002
         vertex -9.272890e+000 -1.520000e+001 1.000000e-002
      endloop
   endfacet
   facet normal 0.000000e+000 0.000000e+000 -1.000000e+000
      outer loop
         vertex -9.272890e+000 -1.500000e+001 0.000000e+000
         vertex -9.272890e+000 -1.520000e+001 0.000000e+000
         vertex -1.600000e+001 -1.500000e+001 0.000000e+000
      endloop
   endfacet
   facet normal 0.000000e+000 0.000000e+000 -1.000000e+000
      outer loop
         vertex -1.600000e+001 -1.500000e+001 0.000000e+000
         vertex -9.272890e+000 -1.520000e+001 0.000000e+000
         vertex -1.620000e+001 -1.520000e+001 0.000000e+000
      endloop
   endfacet
   facet normal 0.000000e+000 0.000000e+000 -1.000000e+000
      outer loop
         vertex -1.600000e+001 -1.500000e+001 0.000000e+000
         vertex -1.620000e+001 -1.520000e+001 0.000000e+000
         vertex -1.600000e+001 -5.000000e+000 0.000000e+000
      endloop
   endfacet
   facet normal 0.000000e+000 0.000000e+000 -1.000000e+000
      outer loop
         vertex -1.600000e+001 -5.000000e+000 0.000000e+000
         vertex -1.620000e+001 -1.520000e+001 0.000000e+000
         vertex -1.620000e+001 -4.800000e+000 0.000000e+000
      endloop
   endfacet
   facet normal 0.000000e+000 0.000000e+000 -1.000000e+000
      outer loop
         vertex -1.600000e+001 -5.000000e+000 0.000000e+000
         vertex -1.620000e+001 -4.800000e+000 0.000000e+000
         vertex -5.000000e+000 -5.000000e+000 0.000000e+000
      endloop
   endfacet
   facet normal 0.000000e+000 0.000000e+000 -1.000000e+000
      outer loop
         vertex -5.000000e+000 -5.000000e+000 0.000000e+000
         vertex -1.620000e+001 -4.800000e+000 0.000000e+000
         vertex -5.200000e+000 -4.800000e+000 0.000000e+000
      endloop
   endfacet
   facet normal 0.000000e+000 0.000000e+000 -1.000000e+000
      outer loop
         vertex -5.000000e+000 -5.000000e+000 0.000000e+000
         vertex -5.200000e+000 -4.800000e+000 0.000000e+000
         vertex -5.000000e+000 3.000000e+000 0.000000e+000
      endloop
   endfacet
   facet normal 0.000000e+000 0.000000e+000 -1.000000e+000
      outer loop
         vertex -5.000000e+000 3.000000e+000 0.000000e+000
         vertex -5.200000e+000 -4.800000e+000 0.000000e+000
         vertex -5.200000e+000 3.000000e+000 0.000000e+000
      endloop
   endfacet
   facet normal 1.000000e+000 0.000000e+000 0.000000e+000
      outer loop
         vertex -1.300000e+001 1.000000e+001 1.000000e-002
         vertex -1.300000e+001 4.000000e+000 1.000000e-002
         vertex -1.300000e+001 1.000000e+001 0.000000e+000
      endloop
   endfacet
   facet normal 1.000000e+000 0.000000e+000 0.000000e+000
      outer loop
         vertex -1.300000e+001 1.000000e+001 0.000000e+000
         vertex -1.300000e+001 4.000000e+000 1.000000e-002
         vertex -1.300000e+001 4.000000e+000 0.000000e+000
      endloop
   endfacet
   facet normal 0.000000e+000 1.000000e+000 0.000000e+000
      outer loop
         vertex -1.320000e+001 1.000000e+001 1.000000e-002
         vertex -1.300000e+001 1.000000e+001 1.000000e-002
         vertex -1.320000e+001 1.000000e+001 0.000000e+000
      endloop
   endfacet
   facet normal 0.000000e+000 1.000000e+000 0.000000e+000
      outer loop
         vertex -1.320000e+001 1.000000e+001 0.000000e+000
         vertex -1.300000e+001 1.000000e+001 1.000000e-002
         vertex -1.300000e+001 1.000000e+001 0.000000e+000
      endloop
   endfacet
   facet normal -1.000000e+000 0.000000e+000 0.000000e+000
      outer loop
         vertex -1.320000e+001 4.000000e+000 1.000000e-002
         vertex -1.320000e+001 1.000000e+001 1.000000e-002
         vertex -1.320000e+001 4.000000e+000 0.000000e+000
      endloop
   endfacet
   facet normal -1.000000e+000 0.000000e+000 0.000000e+000
      outer loop
         vertex -1.320000e+001 4.000000e+000 0.000000e+000
         vertex -1.320000e+001 1.000000e+001 1.000000e-002
         vertex -1.320000e+001 1.000000e+001 0.000000e+000
      endloop
   endfacet
   facet normal 0.000000e+000 -1.000000e+000 0.000000e+000
      outer loop
         vertex -1.300000e+001 4.000000e+000 1.000000e-002
         vertex -1.320000e+001 4.000000e+000 1.000000e-002
         vertex -1.300000e+001 4.000000e+000 0.000000e+000
      endloop
   endfacet
   facet normal 0.000000e+000 -1.000000e+000 0.000000e+000
      outer loop
         vertex -1.300000e+001 4.000000e+000 0.000000e+000
         vertex -1.320000e+001 4.000000e+000 1.000000e-002
         vertex -1.320000e+001 4.000000e+000 0.000000e+000
      endloop
   endfacet
   facet normal 0.000000e+000 0.000000e+000 1.000000e+000
      outer loop
         vertex -1.320000e+001 1.000000e+001 1.000000e-002
         vertex -1.320000e+001 4.000000e+000 1.000000e-002
         vertex -1.300000e+001 1.000000e+001 1.000000e-002
      endloop
   endfacet
   facet normal 0.000000e+000 0.000000e+000 1.000000e+000
      outer loop
         vertex -1.300000e+001 1.000000e+001 1.000000e-002
         vertex -1.320000e+001 4.000000e+000 1.000000e-002
         vertex -1.300000e+001 4.000000e+000 1.000000e-002
      endloop
   endfacet
   facet normal 0.000000e+000 0.000000e+000 -1.000000e+000
      outer loop
         vertex -1.320000e+001 4.000000e+000 0.000000e+000
         vertex -1.320000e+001 1.000000e+001 0.000000e+000
         vertex -1.300000e+001 4.000000e+000 0.000000e+000
      endloop
   endfacet
   facet normal 0.000000e+000 0.000000e+000 -1.000000e+000
      outer loop
         vertex -1.300000e+001 4.000000e+000 0.000000e+000
         vertex -1.320000e+001 1.000000e+001 0.000000e+000
         vertex -1.300000e+001 1.000000e+001 0.000000e+000
      endloop
   endfacet
   facet normal 0.000000e+000 1.000000e+000 0.000000e+000
      outer loop
         vertex 1.100000e+001 -5.000000e+000 1.000000e-002
         vertex 2.000000e+001 -5.000000e+000 1.000000e-002
         vertex 1.100000e+001 -5.000000e+000 0.000000e+000
      endloop
   endfacet
   facet normal 0.000000e+000 1.000000e+000 0.000000e+000
      outer loop
         vertex 1.100000e+001 -5.000000e+000 0.000000e+000
         vertex 2.000000e+001 -5.000000e+000 1.000000e-002
         vertex 2.000000e+001 -5.000000e+000 0.000000e+000
      endloop
   endfacet
   facet normal -1.000000e+000 0.000000e+000 0.000000e+000
      outer loop
         vertex 1.100000e+001 -5.200000e+000 1.000000e-002
         vertex 1.100000e+001 -5.000000e+000 1.000000e-002
         vertex 1.100000e+001 -5.200000e+000 0.000000e+000
      endloop
   endfacet
   facet normal -1.000000e+000 0.000000e+000 0.000000e+000
      outer loop
         vertex 1.100000e+001 -5.200000e+000 0.000000e+000
         vertex 1.100000e+001 -5.000000e+000 1.000000e-002
         vertex 1.100000e+001 -5.000000e+000 0.000000e+000
      endloop
   endfacet
   facet normal 0.000000e+000 -1.000000e+000 0.000000e+000
      outer loop
         vertex 2.000000e+001 -5.200000e+000 1.000000e-002
         vertex 1.100000e+001 -5.200000e+000 1.000000e-002
         vertex 2.000000e+001 -5.200000e+000 0.000000e+000
      endloop
   endfacet
   facet normal 0.000000e+000 -1.000000e+000 0.000000e+000
      outer loop
         vertex 2.000000e+001 -5.200000e+000 0.000000e+000
         vertex 1.100000e+001 -5.200000e+000 1.000000e-002
         vertex 1.100000e+001 -5.200000e+000 0.000000e+000
      endloop
   endfacet
   facet normal 1.000000e+000 0.000000e+000 0.000000e+000
      outer loop
         vertex 2.000000e+001 -5.000000e+000 1.000000e-002
         vertex 2.000000e+001 -5.200000e+000 1.000000e-002
         vertex 2.000000e+001 -5.000000e+000 0.000000e+000
      endloop
   endfacet
   facet normal 1.000000e+000 0.000000e+000 0.000000e+000
      outer loop
         vertex 2.000000e+001 -5.000000e+000 0.000000e+000
         vertex 2.000000e+001 -5.200000e+000 1.000000e-002
         vertex 2.000000e+001 -5.200000e+000 0.000000e+000
      endloop
   endfacet
   facet normal 0.000000e+000 0.000000e+000 1.000000e+000
      outer loop
         vertex 1.100000e+001 -5.200000e+000 1.000000e-002
         vertex 2.000000e+001 -5.200000e+000 1.000000e-002
         vertex 1.100000e+001 -5.000000e+000 1.000000e-002
      endloop
   endfacet
   facet normal 0.000000e+000 0.000000e+000 1.000000e+000
      outer loop
         vertex 1.100000e+001 -5.000000e+000 1.000000e-002
         vertex 2.000000e+001 -5.200000e+000 1.000000e-002
         vertex 2.000000e+001 -5.000000e+000 1.000000e-002
      endloop
   endfacet
   facet normal 0.000000e+000 0.000000e+000 -1.000000e+000
      outer loop
         vertex 2.000000e+001 -5.200000e+000 0.000000e+000
         vertex 1.100000e+001 -5.200000e+000 0.000000e+000
         vertex 2.000000e+001 -5.000000e+000 0.000000e+000
      endloop
   endfacet
   facet normal 0.000000e+000 0.000000e+000 -1.000000e+000
      outer loop
         vertex 2.000000e+001 -5.000000e+000 0.000000e+000
         vertex 1.100000e+001 -5.200000e+000 0.000000e+000
         vertex 1.100000e+001 -5.000000e+000 0.000000e+000
      endloop
   endfacet
   facet normal 1.000000e+000 0.000000e+000 0.000000e+000
      outer loop
         vertex -5.000000e+000 -1.800000e+001 1.000000e-002
         vertex -5.000000e+000 -2.000000e+001 1.000000e-002
         vertex -5.000000e+000 -1.800000e+001 0.000000e+000
      endloop
   endfacet
   facet normal 1.000000e+000 0.000000e+000 0.000000e+000
      outer loop
         vertex -5.000000e+000 -1.800000e+001 0.000000e+000
         vertex -5.000000e+000 -2.000000e+001 1.000000e-002
         vertex -5.000000e+000 -2.000000e+001 0.000000e+000
      endloop
   endfacet
   facet normal 0.000000e+000 1.000000e+000 0.000000e+000
      outer loop
         vertex -5.200000e+000 -1.800000e+001 1.000000e-002
         vertex -5.000000e+000 -1.800000e+001 1.000000e-002
         vertex -5.200000e+000 -1.800000e+001 0.000000e+000
      endloop
   endfacet
   facet normal 0.000000e+000 1.000000e+000 0.000000e+000
      outer loop
         vertex -5.200000e+000 -1.800000e+001 0.000000e+000
         vertex -5.000000e+000 -1.800000e+001 1.000000e-002
         vertex -5.000000e+000 -1.800000e+001 0.000000e+000
      endloop
   endfacet
   facet normal -1.000000e+000 0.000000e+000 0.000000e+000
      outer loop
         vertex -5.200000e+000 -2.000000e+001 1.000000e-002
         vertex -5.200000e+000 -1.800000e+001 1.000000e-002
         vertex -5.200000e+000 -2.000000e+001 0.000000e+000
      endloop
   endfacet
   facet normal -1.000000e+000 0.000000e+000 0.000000e+000
      outer loop
         vertex -5.200000e+000 -2.000000e+001 0.000000e+000
         vertex -5.200000e+000 -1.800000e+001 1.000000e-002
         vertex -5.200000e+000 -1.800000e+001 0.000000e+000
      endloop
   endfacet
   facet normal 0.000000e+000 -1.000000e+000 0.000000e+000
      outer loop
         vertex -5.000000e+000 -2.000000e+001 1.000000e-002
         vertex -5.200000e+000 -2.000000e+001 1.000000e-002
         vertex -5.000000e+000 -2.000000e+001 0.000000e+000
      endloop
   endfacet
   facet normal 0.000000e+000 -1.000000e+000 0.000000e+000
      outer loop
         vertex -5.000000e+000 -2.000000e+001 0.000000e+000
         vertex -5.200000e+000 -2.000000e+001 1.000000e-002
         vertex -5.200000e+000 -2.000000e+001 0.000000e+000
      endloop
   endfacet
   facet normal 0.000000e+000 0.000000e+000 1.000000e+000
      outer loop
         vertex -5.200000e+000 -1.800000e+001 1.000000e-002
         vertex -5.200000e+000 -2.000000e+001 1.000000e-002
         vertex -5.000000e+000 -1.800000e+001 1.000000e-002
      endloop
   endfacet
   facet normal 0.000000e+000 0.000000e+000 1.000000e+000
      outer loop
         vertex -5.000000e+000 -1.800000e+001 1.000000e-002
         vertex -5.200000e+000 -2.000000e+001 1.000000e-002
         vertex -5.000000e+000 -2.000000e+001 1.000000e-002
      endloop
   endfacet
   facet normal 0.000000e+000 0.000000e+000 -1.000000e+000
      outer loop
         vertex -5.200000e+000 -2.000000e+001 0.000000e+000
         vertex -5.200000e+000 -1.800000e+001 0.000000e+000
         vertex -5.000000e+000 -2.000000e+001 0.000000e+000
      endloop
   endfacet
   facet normal 0.000000e+000 0.000000e+000 -1.000000e+000
      outer loop
         vertex -5.000000e+000 -2.000000e+001 0.000000e+000
         vertex -5.200000e+000 -1.800000e+001 0.000000e+000
         vertex -5.000000e+000 -1.800000e+001 0.000000e+000
      endloop
   endfacet
   facet normal 0.000000e+000 1.000000e+000 0.000000e+000
      outer loop
         vertex -1.000000e+000 1.300000e+001 1.000000e-002
         vertex 5.000000e+000 1.300000e+001 1.000000e-002
         vertex -1.000000e+000 1.300000e+001 0.000000e+000
      endloop
   endfacet
   facet normal 0.000000e+000 1.000000e+000 0.000000e+000
      outer loop
         vertex -1.000000e+000 1.300000e+001 0.000000e+000
         vertex 5.000000e+000 1.300000e+001 1.000000e-002
         vertex 5.000000e+000 1.300000e+001 0.000000e+000
      endloop
   endfacet
   facet normal -1.000000e+000 0.000000e+000 0.000000e+000
      outer loop
         vertex -1.000000e+000 1.280000e+001 1.000000e-002
         vertex -1.000000e+000 1.300000e+001 1.000000e-002
         vertex -1.000000e+000 1.280000e+001 0.000000e+000
      endloop
   endfacet
   facet normal -1.000000e+000 0.000000e+000 0.000000e+000
      outer loop
         vertex -1.000000e+000 1.280000e+001 0.000000e+000
         vertex -1.000000e+000 1.300000e+001 1.000000e-002
         vertex -1.000000e+000 1.300000e+001 0.000000e+000
      endloop
   endfacet
   facet normal 0.000000e+000 -1.000000e+000 0.000000e+000
      outer loop
         vertex 5.000000e+000 1.280000e+001 1.000000e-002
         vertex -1.000000e+000 1.280000e+001 1.000000e-002
         vertex 5.000000e+000 1.280000e+001 0.000000e+000
      endloop
   endfacet
   facet normal 0.000000e+000 -1.000000e+000 0.000000e+000
      outer loop
         vertex 5.000000e+000 1.280000e+001 0.000000e+000
         vertex -1.000000e+000 1.280000e+001 1.000000e-002
         vertex -1.000000e+000 1.280000e+001 0.000000e+000
      endloop
   endfacet
   facet normal 1.000000e+000 0.000000e+000 0.000000e+000
      outer loop
         vertex 5.000000e+000 1.300000e+001 1.000000e-002
         vertex 5.000000e+000 1.280000e+001 1.000000e-002
         vertex 5.000000e+000 1.300000e+001 0.000000e+000
      endloop
   endfacet
   facet normal 1.000000e+000 0.000000e+000 0.000000e+000
      outer loop
         vertex 5.000000e+000 1.300000e+001 0.000000e+000
         vertex 5.000000e+000 1.280000e+001 1.000000e-002
         vertex 5.000000e+000 1.280000e+001 0.000000e+000
      endloop
   endfacet
   facet normal 0.000000e+000 0.000000e+000 1.000000e+000
      outer loop
         vertex -1.000000e+000 1.280000e+001 1.000000e-002
         vertex 5.000000e+000 1.280000e+001 1.000000e-002
         vertex -1.000000e+000 1.300000e+001 1.000000e-002
      endloop
   endfacet
   facet normal 0.000000e+000 0.000000e+000 1.000000e+000
      outer loop
         vertex -1.000000e+000 1.300000e+001 1.000000e-002
         vertex 5.000000e+000 1.280000e+001 1.000000e-002
         vertex 5.000000e+000 1.300000e+001 1.000000e-002
      endloop
   endfacet
   facet normal 0.000000e+000 0.000000e+000 -1.000000e+000
      outer loop
         vertex 5.000000e+000 1.280000e+001 0.000000e+000
         vertex -1.000000e+000 1.280000e+001 0.000000e+000
         vertex 5.000000e+000 1.300000e+001 0.000000e+000
      endloop
   endfacet
   facet normal 0.000000e+000 0.000000e+000 -1.000000e+000
      outer loop
         vertex 5.000000e+000 1.300000e+001 0.000000e+000
         vertex -1.000000e+000 1.280000e+001 0.000000e+000
         vertex -1.000000e+000 1.300000e+001 0.000000e+000
      endloop
   endfacet
   facet normal -1.000000e+000 0.000000e+000 0.000000e+000
      outer loop
         vertex -1.000000e+001 1.800000e+001 1.000000e-002
         vertex -1.000000e+001 2.000000e+001 1.000000e-002
         vertex -1.000000e+001 1.800000e+001 0.000000e+000
      endloop
   endfacet
   facet normal -1.000000e+000 0.000000e+000 0.000000e+000
      outer loop
         vertex -1.000000e+001 1.800000e+001 0.000000e+000
         vertex -1.000000e+001 2.000000e+001 1.000000e-002
         vertex -1.000000e+001 2.000000e+001 0.000000e+000
      endloop
   endfacet
   facet normal 0.000000e+000 -1.000000e+000 0.000000e+000
      outer loop
         vertex -9.800000e+000 1.800000e+001 1.000000e-002
         vertex -1.000000e+001 1.800000e+001 1.000000e-002
         vertex -9.800000e+000 1.800000e+001 0.000000e+000
      endloop
   endfacet
   facet normal 0.000000e+000 -1.000000e+000 0.000000e+000
      outer loop
         vertex -9.800000e+000 1.800000e+001 0.000000e+000
         vertex -1.000000e+001 1.800000e+001 1.000000e-002
         vertex -1.000000e+001 1.800000e+001 0.000000e+000
      endloop
   endfacet
   facet normal 1.000000e+000 0.000000e+000 0.000000e+000
      outer loop
         vertex -9.800000e+000 2.000000e+001 1.000000e-002
         vertex -9.800000e+000 1.800000e+001 1.000000e-002
         vertex -9.800000e+000 2.000000e+001 0.000000e+000
      endloop
   endfacet
   facet normal 1.000000e+000 0.000000e+000 0.000000e+000
      outer loop
         vertex -9.800000e+000 2.000000e+001 0.000000e+000
         vertex -9.800000e+000 1.800000e+001 1.000000e-002
         vertex -9.800000e+000 1.800000e+001 0.000000e+000
      endloop
   endfacet
   facet normal 0.000000e+000 1.000000e+000 0.000000e+000
      outer loop
         vertex -1.000000e+001 2.000000e+001 1.000000e-002
         vertex -9.800000e+000 2.000000e+001 1.000000e-002
         vertex -1.000000e+001 2.000000e+001 0.000000e+000
      endloop
   endfacet
   facet normal 0.000000e+000 1.000000e+000 0.000000e+000
      outer loop
         vertex -1.000000e+001 2.000000e+001 0.000000e+000
         vertex -9.800000e+000 2.000000e+001 1.000000e-002
         vertex -9.800000e+000 2.000000e+001 0.000000e+000
      endloop
   endfacet
   facet normal 0.000000e+000 0.000000e+000 1.000000e+000
      outer loop
         vertex -9.800000e+000 1.800000e+001 1.000000e-002
         vertex -9.800000e+000 2.000000e+001 1.000000e-002
         vertex -1.000000e+001 1.800000e+001 1.000000e-002
      endloop
   endfacet
   facet normal 0.000000e+000 0.000000e+000 1.000000e+000
      outer loop
         vertex -1.000000e+001 1.800000e+001 1.000000e-002
         vertex -9.800000e+000 2.000000e+001 1.000000e-002
         vertex -1.000000e+001 2.000000e+001 1.000000e-002
      endloop
   endfacet
   facet normal 0.000000e+000 0.000000e+000 -1.000000e+000
      outer loop
         vertex -9.800000e+000 2.000000e+001 0.000000e+000
         vertex -9.800000e+000 1.800000e+001 0.000000e+000
         vertex -1.000000e+001 2.000000e+001 0.000000e+000
      endloop
   endfacet
   facet normal 0.000000e+000 0.000000e+000 -1.000000e+000
      outer loop
         vertex -1.000000e+001 2.000000e+001 0.000000e+000
         vertex -9.800000e+000 1.800000e+001 0.000000e+000
         vertex -1.000000e+001 1.800000e+001 0.000000e+000
      endloop
   endfacet
   facet normal 1.000000e+000 0.000000e+000 0.000000e+000
      outer loop
         vertex 1.000000e+001 2.000000e+001 1.000000e-002
         vertex 1.000000e+001 1.800000e+001 1.000000e-002
         vertex 1.000000e+001 2.000000e+001 0.000000e+000
      endloop
   endfacet
   facet normal 1.000000e+000 0.000000e+000 0.000000e+000
      outer loop
         vertex 1.000000e+001 2.000000e+001 0.000000e+000
         vertex 1.000000e+001 1.800000e+001 1.000000e-002
         vertex 1.000000e+001 1.800000e+001 0.000000e+000
      endloop
   endfacet
   facet normal 0.000000e+000 1.000000e+000 0.000000e+000
      outer loop
         vertex 9.800000e+000 2.000000e+001 1.000000e-002
         vertex 1.000000e+001 2.000000e+001 1.000000e-002
         vertex 9.800000e+000 2.000000e+001 0.000000e+000
      endloop
   endfacet
   facet normal 0.000000e+000 1.000000e+000 0.000000e+000
      outer loop
         vertex 9.800000e+000 2.000000e+001 0.000000e+000
         vertex 1.000000e+001 2.000000e+001 1.000000e-002
         vertex 1.000000e+001 2.000000e+001 0.000000e+000
      endloop
   endfacet
   facet normal -1.000000e+000 0.000000e+000 0.000000e+000
      outer loop
         vertex 9.800000e+000 1.800000e+001 1.000000e-002
         vertex 9.800000e+000 2.000000e+001 1.000000e-002
         vertex 9.800000e+000 1.800000e+001 0.000000e+000
      endloop
   endfacet
   facet normal -1.000000e+000 0.000000e+000 0.000000e+000
      outer loop
         vertex 9.800000e+000 1.800000e+001 0.000000e+000
         vertex 9.800000e+000 2.000000e+001 1.000000e-002
         vertex 9.800000e+000 2.000000e+001 0.000000e+000
      endloop
   endfacet
   facet normal 0.000000e+000 -1.000000e+000 0.000000e+000
      outer loop
         vertex 1.000000e+001 1.800000e+001 1.000000e-002
         vertex 9.800000e+000 1.800000e+001 1.000000e-002
         vertex 1.000000e+001 1.800000e+001 0.000000e+000
      endloop
   endfacet
   facet normal 0.000000e+000 -1.000000e+000 0.000000e+000
      outer loop
         vertex 1.000000e+001 1.800000e+001 0.000000e+000
         vertex 9.800000e+000 1.800000e+001 1.000000e-002
         vertex 9.800000e+000 1.800000e+001 0.000000e+000
      endloop
   endfacet
   facet normal 0.000000e+000 0.000000e+000 1.000000e+000
      outer loop
         vertex 9.800000e+000 2.000000e+001 1.000000e-002
         vertex 9.800000e+000 1.800000e+001 1.000000e-002
         vertex 1.000000e+001 2.000000e+001 1.000000e-002
      endloop
   endfacet
   facet normal 0.000000e+000 0.000000e+000 1.000000e+000
      outer loop
         vertex 1.000000e+001 2.000000e+001 1.000000e-002
         vertex 9.800000e+000 1.800000e+001 1.000000e-002
         vertex 1.000000e+001 1.800000e+001 1.000000e-002
      endloop
   endfacet
   facet normal 0.000000e+000 0.000000e+000 -1.000000e+000
      outer loop
         vertex 9.800000e+000 1.800000e+001 0.000000e+000
         vertex 9.800000e+000 2.000000e+001 0.000000e+000
         vertex 1.000000e+001 1.800000e+001 0.000000e+000
      endloop
   endfacet
   facet normal 0.000000e+000 0.000000e+000 -1.000000e+000
      outer loop
         vertex 1.000000e+001 1.800000e+001 0.000000e+000
         vertex 9.800000e+000 2.000000e+001 0.000000e+000
         vertex 1.000000e+001 2.000000e+001 0.000000e+000
      endloop
   endfacet
   facet normal 0.000000e+000 1.000000e+000 0.000000e+000
      outer loop
         vertex 1.900000e+001 1.000000e+001 1.000000e-002
         vertex 2.000000e+001 1.000000e+001 1.000000e-002
         vertex 1.900000e+001 1.000000e+001 0.000000e+000
      endloop
   endfacet
   facet normal 0.000000e+000 1.000000e+000 0.000000e+000
      outer loop
         vertex 1.900000e+001 1.000000e+001 0.000000e+000
         vertex 2.000000e+001 1.000000e+001 1.000000e-002
         vertex 2.000000e+001 1.000000e+001 0.000000e+000
      endloop
   endfacet
   facet normal -1.000000e+000 0.000000e+000 0.000000e+000
      outer loop
         vertex 1.900000e+001 9.800000e+000 1.000000e-002
         vertex 1.900000e+001 1.000000e+001 1.000000e-002
         vertex 1.900000e+001 9.800000e+000 0.000000e+000
      endloop
   endfacet
   facet normal -1.000000e+000 0.000000e+000 0.000000e+000
      outer loop
         vertex 1.900000e+001 9.800000e+000 0.000000e+000
         vertex 1.900000e+001 1.000000e+001 1.000000e-002
         vertex 1.900000e+001 1.000000e+001 0.000000e+000
      endloop
   endfacet
   facet normal 0.000000e+000 -1.000000e+000 0.000000e+000
      outer loop
         vertex 2.000000e+001 9.800000e+000 1.000000e-002
         vertex 1.900000e+001 9.800000e+000 1.000000e-002
         vertex 2.000000e+001 9.800000e+000 0.000000e+000
      endloop
   endfacet
   facet normal 0.000000e+000 -1.000000e+000 0.000000e+000
      outer loop
         vertex 2.000000e+001 9.800000e+000 0.000000e+000
         vertex 1.900000e+001 9.800000e+000 1.000000e-002
         vertex 1.900000e+001 9.800000e+000 0.000000e+000
      endloop
   endfacet
   facet normal 1.000000e+000 0.000000e+000 0.000000e+000
      outer loop
         vertex 2.000000e+001 1.000000e+001 1.000000e-002
         vertex 2.000000e+001 9.800000e+000 1.000000e-002
         vertex 2.000000e+001 1.000000e+001 0.000000e+000
      endloop
   endfacet
   facet normal 1.000000e+000 0.000000e+000 0.000000e+000
      outer loop
         vertex 2.000000e+001 1.000000e+001 0.000000e+000
         vertex 2.000000e+001 9.800000e+000 1.000000e-002
         vertex 2.000000e+001 9.800000e+000 0.000000e+000
      endloop
   endfacet
   facet normal 0.000000e+000 0.000000e+000 1.000000e+000
      outer loop
         vertex 1.900000e+001 9.800000e+000 1.000000e-002
         vertex 2.000000e+001 9.800000e+000 1.000000e-002
         vertex 1.900000e+001 1.000000e+001 1.000000e-002
      endloop
   endfacet
   facet normal 0.000000e+000 0.000000e+000 1.000000e+000
      outer loop
         vertex 1.900000e+001 1.000000e+001 1.000000e-002
         vertex 2.000000e+001 9.800000e+000 1.000000e-002
         vertex 2.000000e+001 1.000000e+001 1.000000e-002
      endloop
   endfacet
   facet normal 0.000000e+000 0.000000e+000 -1.000000e+000
      outer loop
         vertex 2.000000e+001 9.800000e+000 0.000000e+000
         vertex 1.900000e+001 9.800000e+000 0.000000e+000
         vertex 2.000000e+001 1.000000e+001 0.000000e+000
      endloop
   endfacet
   facet normal 0.000000e+000 0.000000e+000 -1.000000e+000
      outer loop
         vertex 2.000000e+001 1.000000e+001 0.000000e+000
         vertex 1.900000e+001 9.800000e+000 0.000000e+000
         vertex 1.900000e+001 1.000000e+001 0.000000e+000
      endloop
   endfacet
   facet normal 0.000000e+000 -1.000000e+000 0.000000e+000
      outer loop
         vertex -1.800000e+001 -1.000000e+001 1.000000e-002
         vertex -2.000000e+001 -1.000000e+001 1.000000e-002
         vertex -1.800000e+001 -1.000000e+001 0.000000e+000
      endloop
   endfacet
   facet normal 0.000000e+000 -1.000000e+000 0.000000e+000
      outer loop
         vertex -1.800000e+001 -1.000000e+001 0.000000e+000
         vertex -2.000000e+001 -1.000000e+001 1.000000e-002
         vertex -2.000000e+001 -1.000000e+001 0.000000e+000
      endloop
   endfacet
   facet normal 1.000000e+000 0.000000e+000 0.000000e+000
      outer loop
         vertex -1.800000e+001 -9.800000e+000 1.000000e-002
         vertex -1.800000e+001 -1.000000e+001 1.000000e-002
         vertex -1.800000e+001 -9.800000e+000 0.000000e+000
      endloop
   endfacet
   facet normal 1.000000e+000 0.000000e+000 0.000000e+000
      outer loop
         vertex -1.800000e+001 -9.800000e+000 0.000000e+000
         vertex -1.800000e+001 -1.000000e+001 1.000000e-002
         vertex -1.800000e+001 -1.000000e+001 0.000000e+000
      endloop
   endfacet
   facet normal 0.000000e+000 1.000000e+000 0.000000e+000
      outer loop
         vertex -2.000000e+001 -9.800000e+000 1.000000e-002
         vertex -1.800000e+001 -9.800000e+000 1.000000e-002
         vertex -2.000000e+001 -9.800000e+000 0.000000e+000
      endloop
   endfacet
   facet normal 0.000000e+000 1.000000e+000 0.000000e+000
      outer loop
         vertex -2.000000e+001 -9.800000e+000 0.000000e+000
         vertex -1.800000e+001 -9.800000e+000 1.000000e-002
         vertex -1.800000e+001 -9.800000e+000 0.000000e+000
      endloop
   endfacet
   facet normal -1.000000e+000 0.000000e+000 0.000000e+000
      outer loop
         vertex -2.000000e+001 -1.000000e+001 1.000000e-002
         vertex -2.000000e+001 -9.800000e+000 1.000000e-002
         vertex -2.000000e+001 -1.000000e+001 0.000000e+000
      endloop
   endfacet
   facet normal -1.000000e+000 0.000000e+000 0.000000e+000
      outer loop
         vertex -2.000000e+001 -1.000000e+001 0.000000e+000
         vertex -2.000000e+001 -9.800000e+000 1.000000e-002
         vertex -2.000000e+001 -9.800000e+000 0.000000e+000
      endloop
   endfacet
   facet normal 0.000000e+000 0.000000e+000 1.000000e+000
      outer loop
         vertex -1.800000e+001 -9.800000e+000 1.000000e-002
         vertex -2.000000e+001 -9.800000e+000 1.000000e-002
         vertex -1.800000e+001 -1.000000e+001 1.000000e-002
      endloop
   endfacet
   facet normal 0.000000e+000 0.000000e+000 1.000000e+000
      outer loop
         vertex -1.800000e+001 -1.000000e+001 1.000000e-002
         vertex -2.000000e+001 -9.800000e+000 1.000000e-002
         vertex -2.000000e+001 -1.000000e+001 1.000000e-002
      endloop
   endfacet
   facet normal 0.000000e+000 0.000000e+000 -1.000000e+000
      outer loop
         vertex -2.000000e+001 -9.800000e+000 0.000000e+000
         vertex -1.800000e+001 -9.800000e+000 0.000000e+000
         vertex -2.000000e+001 -1.000000e+001 0.000000e+000
      endloop
   endfacet
   facet normal 0.000000e+000 0.000000e+000 -1.000000e+000
      outer loop
         vertex -2.000000e+001 -1.000000e+001 0.000000e+000
         vertex -1.800000e+001 -9.800000e+000 0.000000e+000
         vertex -1.800000e+001 -1.000000e+001 0.000000e+000
      endloop
   endfacet
   facet normal 0.000000e+000 0.000000e+000 1.000000e+000
      outer loop
         vertex 1.980000e+001 1.980000e+001 1.000000e-002
         vertex 2.000000e+001 2.000000e+001 1.000000e-002
         vertex -1.980000e+001 1.980000e+001 1.000000e-002
      endloop
   endfacet
   facet normal 0.000000e+000 0.000000e+000 1.000000e+000
      outer loop
         vertex -1.980000e+001 1.980000e+001 1.000000e-002
         vertex 2.000000e+001 2.000000e+001 1.000000e-002
         vertex -2.000000e+001 2.000000e+001 1.000000e-002
      endloop
   endfacet
   facet normal 0.000000e+000 0.000000e+000 1.000000e+000
      outer loop
         vertex -1.980000e+001 1.980000e+001 1.000000e-002
         vertex -2.000000e+001 2.000000e+001 1.000000e-002
         vertex -1.980000e+001 -1.980000e+001 1.000000e-002
      endloop
   endfacet
   facet normal 0.000000e+000 0.000000e+000 1.000000e+000
      outer loop
         vertex -1.980000e+001 -1.980000e+001 1.000000e-002
         vertex -2.000000e+001 2.000000e+001 1.000000e-002
         vertex -2.000000e+001 -2.000000e+001 1.000000e-002
      endloop
   endfacet
   facet normal 0.000000e+000 0.000000e+000 1.000000e+000
      outer loop
         vertex -1.980000e+001 -1.980000e+001 1.000000e-002
         vertex -2.000000e+001 -2.000000e+001 1.000000e-002
         vertex 1.980000e+001 -1.980000e+001 1.000000e-002
      endloop
   endfacet
   facet normal 0.000000e+000 0.000000e+000 1.000000e+000
      outer loop
         vertex 1.980000e+001 -1.980000e+001 1.000000e-002
         vertex -2.000000e+001 -2.000000e+001 1.000000e-002
         vertex 2.000000e+001 -2.000000e+001 1.000000e-002
      endloop
   endfacet
   facet normal 0.000000e+000 0.000000e+000 1.000000e+000
      outer loop
         vertex 1.980000e+001 -1.980000e+001 1.000000e-002
         vertex 2.000000e+001 -2.000000e+001 1.000000e-002
         vertex 1.980000e+001 1.980000e+001 1.000000e-002
      endloop
   endfacet
   facet normal 0.000000e+000 0.000000e+000 1.000000e+000
      outer loop
         vertex 1.980000e+001 1.980000e+001 1.000000e-002
         vertex 2.000000e+001 -2.000000e+001 1.000000e-002
         vertex 2.000000e+001 2.000000e+001 1.000000e-002
      endloop
   endfacet
   facet normal 0.000000e+000 0.000000e+000 -1.000000e+000
      outer loop
         vertex 1.980000e+001 1.980000e+001 0.000000e+000
         vertex 2.000000e+001 2.000000e+001 0.000000e+000
         vertex 1.980000e+001 -1.980000e+001 0.000000e+000
      endloop
   endfacet
   facet normal 0.000000e+000 0.000000e+000 -1.000000e+000
      outer loop
         vertex 1.980000e+001 -1.980000e+001 0.000000e+000
         vertex 2.000000e+001 2.000000e+001 0.000000e+000
         vertex 2.000000e+001 -2.000000e+001 0.000000e+000
      endloop
   endfacet
   facet normal 0.000000e+000 0.000000e+000 -1.000000e+000
      outer loop
         vertex 1.980000e+001 -1.980000e+001 0.000000e+000
         vertex 2.000000e+001 -2.000000e+001 0.000000e+000
         vertex -1.980000e+001 -1.980000e+001 0.000000e+000
      endloop
   endfacet
   facet normal 0.000000e+000 0.000000e+000 -1.000000e+000
      outer loop
         vertex -1.980000e+001 -1.980000e+001 0.000000e+000
         vertex 2.000000e+001 -2.000000e+001 0.000000e+000
         vertex -2.000000e+001 -2.000000e+001 0.000000e+000
      endloop
   endfacet
   facet normal 0.000000e+000 0.000000e+000 -1.000000e+000
      outer loop
         vertex -1.980000e+001 -1.980000e+001 0.000000e+000
         vertex -2.000000e+001 -2.000000e+001 0.000000e+000
         vertex -1.980000e+001 1.980000e+001 0.000000e+000
      endloop
   endfacet
   facet normal 0.000000e+000 0.000000e+000 -1.000000e+000
      outer loop
         vertex -1.980000e+001 1.980000e+001 0.000000e+000
         vertex -2.000000e+001 -2.000000e+001 0.000000e+000
         vertex -2.000000e+001 2.000000e+001 0.000000e+000
      endloop
   endfacet
   facet normal 0.000000e+000 0.000000e+000 -1.000000e+000
      outer loop
         vertex -1.980000e+001 1.980000e+001 0.000000e+000
         vertex -2.000000e+001 2.000000e+001 0.000000e+000
         vertex 1.980000e+001 1.980000e+001 0.000000e+000
      endloop
   endfacet
   facet normal 0.000000e+000 0.000000e+000 -1.000000e+000
      outer loop
         vertex 1.980000e+001 1.980000e+001 0.000000e+000
         vertex -2.000000e+001 2.000000e+001 0.000000e+000
         vertex 2.000000e+001 2.000000e+001 0.000000e+000
      endloop
   endfacet
   facet normal -1.000000e+000 -8.881784e-017 0.000000e+000
      outer loop
         vertex -2.000000e+001 -2.000000e+001 1.000000e-002
         vertex -2.000000e+001 2.000000e+001 1.000000e-002
         vertex -2.000000e+001 -2.000000e+001 0.000000e+000
      endloop
   endfacet
   facet normal -1.000000e+000 -8.881784e-017 0.000000e+000
      outer loop
         vertex -2.000000e+001 -2.000000e+001 0.000000e+000
         vertex -2.000000e+001 2.000000e+001 1.000000e-002
         vertex -2.000000e+001 2.000000e+001 0.000000e+000
      endloop
   endfacet
   facet normal 0.000000e+000 -1.000000e+000 0.000000e+000
      outer loop
         vertex 2.000000e+001 -2.000000e+001 1.000000e-002
         vertex -2.000000e+001 -2.000000e+001 1.000000e-002
         vertex 2.000000e+001 -2.000000e+001 0.000000e+000
      endloop
   endfacet
   facet normal 0.000000e+000 -1.000000e+000 0.000000e+000
      outer loop
         vertex 2.000000e+001 -2.000000e+001 0.000000e+000
         vertex -2.000000e+001 -2.000000e+001 1.000000e-002
         vertex -2.000000e+001 -2.000000e+001 0.000000e+000
      endloop
   endfacet
   facet normal 1.000000e+000 2.664535e-016 0.000000e+000
      outer loop
         vertex 2.000000e+001 2.000000e+001 1.000000e-002
         vertex 2.000000e+001 -2.000000e+001 1.000000e-002
         vertex 2.000000e+001 2.000000e+001 0.000000e+000
      endloop
   endfacet
   facet normal 1.000000e+000 2.664535e-016 0.000000e+000
      outer loop
         vertex 2.000000e+001 2.000000e+001 0.000000e+000
         vertex 2.000000e+001 -2.000000e+001 1.000000e-002
         vertex 2.000000e+001 -2.000000e+001 0.000000e+000
      endloop
   endfacet
   facet normal -8.881784e-017 1.000000e+000 0.000000e+000
      outer loop
         vertex -2.000000e+001 2.000000e+001 1.000000e-002
         vertex 2.000000e+001 2.000000e+001 1.000000e-002
         vertex -2.000000e+001 2.000000e+001 0.000000e+000
      endloop
   endfacet
   facet normal -8.881784e-017 1.000000e+000 0.000000e+000
      outer loop
         vertex -2.000000e+001 2.000000e+001 0.000000e+000
         vertex 2.000000e+001 2.000000e+001 1.000000e-002
         vertex 2.000000e+001 2.000000e+001 0.000000e+000
      endloop
   endfacet
   facet normal 1.000000e+000 8.881784e-017 0.000000e+000
      outer loop
         vertex -1.980000e+001 1.980000e+001 1.000000e-002
         vertex -1.980000e+001 -1.980000e+001 1.000000e-002
         vertex -1.980000e+001 1.980000e+001 0.000000e+000
      endloop
   endfacet
   facet normal 1.000000e+000 8.881784e-017 0.000000e+000
      outer loop
         vertex -1.980000e+001 1.980000e+001 0.000000e+000
         vertex -1.980000e+001 -1.980000e+001 1.000000e-002
         vertex -1.980000e+001 -1.980000e+001 0.000000e+000
      endloop
   endfacet
   facet normal 0.000000e+000 1.000000e+000 0.000000e+000
      outer loop
         vertex -1.980000e+001 -1.980000e+001 1.000000e-002
         vertex 1.980000e+001 -1.980000e+001 1.000000e-002
         vertex -1.980000e+001 -1.980000e+001 0.000000e+000
      endloop
   endfacet
   facet normal 0.000000e+000 1.000000e+000 0.000000e+000
      outer loop
         vertex -1.980000e+001 -1.980000e+001 0.000000e+000
         vertex 1.980000e+001 -1.980000e+001 1.000000e-002
         vertex 1.980000e+001 -1.980000e+001 0.000000e+000
      endloop
   endfacet
   facet normal -1.000000e+000 -2.664535e-016 0.000000e+000
      outer loop
         vertex 1.980000e+001 -1.980000e+001 1.000000e-002
         vertex 1.980000e+001 1.980000e+001 1.000000e-002
         vertex 1.980000e+001 -1.980000e+001 0.000000e+000
      endloop
   endfacet
   facet normal -1.000000e+000 -2.664535e-016 0.000000e+000
      outer loop
         vertex 1.980000e+001 -1.980000e+001 0.000000e+000
         vertex 1.980000e+001 1.980000e+001 1.000000e-002
         vertex 1.980000e+001 1.980000e+001 0.000000e+000
      endloop
   endfacet
   facet normal 8.881784e-017 -1.000000e+000 0.000000e+000
      outer loop
         vertex 1.980000e+001 1.980000e+001 1.000000e-002
         vertex -1.980000e+001 1.980000e+001 1.000000e-002
         vertex 1.980000e+001 1.980000e+001 0.000000e+000
      endloop
   endfacet
   facet normal 8.881784e-017 -1.000000e+000 0.000000e+000
      outer loop
         vertex 1.980000e+001 1.980000e+001 0.000000e+000
         vertex -1.980000e+001 1.980000e+001 1.000000e-002
         vertex -1.980000e+001 1.980000e+001 0.000000e+000
      endloop
   endfacet
   facet normal 1.000000e+000 1.184238e-016 0.000000e+000
      outer loop
         vertex 1.520000e+001 1.520000e+001 1.000000e-002
         vertex 1.520000e+001 -2.000000e-001 1.000000e-002
         vertex 1.520000e+001 1.520000e+001 0.000000e+000
      endloop
   endfacet
   facet normal 1.000000e+000 1.184238e-016 0.000000e+000
      outer loop
         vertex 1.520000e+001 1.520000e+001 0.000000e+000
         vertex 1.520000e+001 -2.000000e-001 1.000000e-002
         vertex 1.520000e+001 -2.000000e-001 0.000000e+000
      endloop
   endfacet
   facet normal 0.000000e+000 1.000000e+000 0.000000e+000
      outer loop
         vertex 9.800000e+000 1.520000e+001 1.000000e-002
         vertex 1.520000e+001 1.520000e+001 1.000000e-002
         vertex 9.800000e+000 1.520000e+001 0.000000e+000
      endloop
   endfacet
   facet normal 0.000000e+000 1.000000e+000 0.000000e+000
      outer loop
         vertex 9.800000e+000 1.520000e+001 0.000000e+000
         vertex 1.520000e+001 1.520000e+001 1.000000e-002
         vertex 1.520000e+001 1.520000e+001 0.000000e+000
      endloop
   endfacet
   facet normal -1.000000e+000 2.220446e-016 0.000000e+000
      outer loop
         vertex 9.800000e+000 7.000000e+000 1.000000e-002
         vertex 9.800000e+000 1.520000e+001 1.000000e-002
         vertex 9.800000e+000 7.000000e+000 0.000000e+000
      endloop
   endfacet
   facet normal -1.000000e+000 2.220446e-016 0.000000e+000
      outer loop
         vertex 9.800000e+000 7.000000e+000 0.000000e+000
         vertex 9.800000e+000 1.520000e+001 1.000000e-002
         vertex 9.800000e+000 1.520000e+001 0.000000e+000
      endloop
   endfacet
   facet normal 0.000000e+000 -1.000000e+000 0.000000e+000
      outer loop
         vertex 1.000000e+001 7.000000e+000 1.000000e-002
         vertex 9.800000e+000 7.000000e+000 1.000000e-002
         vertex 1.000000e+001 7.000000e+000 0.000000e+000
      endloop
   endfacet
   facet normal 0.000000e+000 -1.000000e+000 0.000000e+000
      outer loop
         vertex 1.000000e+001 7.000000e+000 0.000000e+000
         vertex 9.800000e+000 7.000000e+000 1.000000e-002
         vertex 9.800000e+000 7.000000e+000 0.000000e+000
      endloop
   endfacet
   facet normal 1.000000e+000 -2.220446e-016 0.000000e+000
      outer loop
         vertex 1.000000e+001 1.500000e+001 1.000000e-002
         vertex 1.000000e+001 7.000000e+000 1.000000e-002
         vertex 1.000000e+001 1.500000e+001 0.000000e+000
      endloop
   endfacet
   facet normal 1.000000e+000 -2.220446e-016 0.000000e+000
      outer loop
         vertex 1.000000e+001 1.500000e+001 0.000000e+000
         vertex 1.000000e+001 7.000000e+000 1.000000e-002
         vertex 1.000000e+001 7.000000e+000 0.000000e+000
      endloop
   endfacet
   facet normal 0.000000e+000 -1.000000e+000 0.000000e+000
      outer loop
         vertex 1.500000e+001 1.500000e+001 1.000000e-002
         vertex 1.000000e+001 1.500000e+001 1.000000e-002
         vertex 1.500000e+001 1.500000e+001 0.000000e+000
      endloop
   endfacet
   facet normal 0.000000e+000 -1.000000e+000 0.000000e+000
      outer loop
         vertex 1.500000e+001 1.500000e+001 0.000000e+000
         vertex 1.000000e+001 1.500000e+001 1.000000e-002
         vertex 1.000000e+001 1.500000e+001 0.000000e+000
      endloop
   endfacet
   facet normal -1.000000e+000 -1.184238e-016 0.000000e+000
      outer loop
         vertex 1.500000e+001 0.000000e+000 1.000000e-002
         vertex 1.500000e+001 1.500000e+001 1.000000e-002
         vertex 1.500000e+001 0.000000e+000 0.000000e+000
      endloop
   endfacet
   facet normal -1.000000e+000 -1.184238e-016 0.000000e+000
      outer loop
         vertex 1.500000e+001 0.000000e+000 0.000000e+000
         vertex 1.500000e+001 1.500000e+001 1.000000e-002
         vertex 1.500000e+001 1.500000e+001 0.000000e+000
      endloop
   endfacet
   facet normal 0.000000e+000 0.000000e+000 1.000000e+000
      outer loop
         vertex 1.100000e+001 -6.661338e-016 1.000000e-002
         vertex 1.100000e+001 -2.000000e-001 1.000000e-002
         vertex 1.500000e+001 -3.351954e-018 1.000000e-002
      endloop
   endfacet
   facet normal 0.000000e+000 0.000000e+000 1.000000e+000
      outer loop
         vertex 1.500000e+001 -3.351954e-018 1.000000e-002
         vertex 1.100000e+001 -2.000000e-001 1.000000e-002
         vertex 1.520000e+001 -2.000000e-001 1.000000e-002
      endloop
   endfacet
   facet normal 0.000000e+000 0.000000e+000 1.000000e+000
      outer loop
         vertex 1.500000e+001 -3.351954e-018 1.000000e-002
         vertex 1.520000e+001 -2.000000e-001 1.000000e-002
         vertex 1.500000e+001 1.500000e+001 1.000000e-002
      endloop
   endfacet
   facet normal 0.000000e+000 0.000000e+000 1.000000e+000
      outer loop
         vertex 1.500000e+001 1.500000e+001 1.000000e-002
         vertex 1.520000e+001 -2.000000e-001 1.000000e-002
         vertex 1.520000e+001 1.520000e+001 1.000000e-002
      endloop
   endfacet
   facet normal 0.000000e+000 0.000000e+000 1.000000e+000
      outer loop
         vertex 1.500000e+001 1.500000e+001 1.000000e-002
         vertex 1.520000e+001 1.520000e+001 1.000000e-002
         vertex 1.000000e+001 1.500000e+001 1.000000e-002
      endloop
   endfacet
   facet normal 0.000000e+000 0.000000e+000 1.000000e+000
      outer loop
         vertex 1.000000e+001 1.500000e+001 1.000000e-002
         vertex 1.520000e+001 1.520000e+001 1.000000e-002
         vertex 9.800000e+000 1.520000e+001 1.000000e-002
      endloop
   endfacet
   facet normal 0.000000e+000 0.000000e+000 1.000000e+000
      outer loop
         vertex 1.000000e+001 1.500000e+001 1.000000e-002
         vertex 9.800000e+000 1.520000e+001 1.000000e-002
         vertex 1.000000e+001 7.000000e+000 1.000000e-002
      endloop
   endfacet
   facet normal 0.000000e+000 0.000000e+000 1.000000e+000
      outer loop
         vertex 1.000000e+001 7.000000e+000 1.000000e-002
         vertex 9.800000e+000 1.520000e+001 1.000000e-002
         vertex 9.800000e+000 7.000000e+000 1.000000e-002
      endloop
   endfacet
   facet normal 0.000000e+000 0.000000e+000 -1.000000e+000
      outer loop
         vertex 1.000000e+001 7.000000e+000 0.000000e+000
         vertex 9.800000e+000 7.000000e+000 0.000000e+000
         vertex 1.000000e+001 1.500000e+001 0.000000e+000
      endloop
   endfacet
   facet normal 0.000000e+000 0.000000e+000 -1.000000e+000
      outer loop
         vertex 1.000000e+001 1.500000e+001 0.000000e+000
         vertex 9.800000e+000 7.000000e+000 0.000000e+000
         vertex 9.800000e+000 1.520000e+001 0.000000e+000
      endloop
   endfacet
   facet normal 0.000000e+000 0.000000e+000 -1.000000e+000
      outer loop
         vertex 1.000000e+001 1.500000e+001 0.000000e+000
         vertex 9.800000e+000 1.520000e+001 0.000000e+000
         vertex 1.500000e+001 1.500000e+001 0.000000e+000
      endloop
   endfacet
   facet normal 0.000000e+000 0.000000e+000 -1.000000e+000
      outer loop
         vertex 1.500000e+001 1.500000e+001 0.000000e+000
         vertex 9.800000e+000 1.520000e+001 0.000000e+000
         vertex 1.520000e+001 1.520000e+001 0.000000e+000
      endloop
   endfacet
   facet normal 0.000000e+000 0.000000e+000 -1.000000e+000
      outer loop
         vertex 1.500000e+001 1.500000e+001 0.000000e+000
         vertex 1.520000e+001 1.520000e+001 0.000000e+000
         vertex 1.500000e+001 -3.351954e-018 0.000000e+000
      endloop
   endfacet
   facet normal 0.000000e+000 0.000000e+000 -1.000000e+000
      outer loop
         vertex 1.500000e+001 -3.351954e-018 0.000000e+000
         vertex 1.520000e+001 1.520000e+001 0.000000e+000
         vertex 1.520000e+001 -2.000000e-001 0.000000e+000
      endloop
   endfacet
   facet normal 0.000000e+000 0.000000e+000 -1.000000e+000
      outer loop
         vertex 1.500000e+001 -3.351954e-018 0.000000e+000
         vertex 1.520000e+001 -2.000000e-001 0.000000e+000
         vertex 1.100000e+001 -4.918699e-016 0.000000e+000
      endloop
   endfacet
   facet normal 0.000000e+000 0.000000e+000 -1.000000e+000
      outer loop
         vertex 1.100000e+001 -4.918699e-016 0.000000e+000
         vertex 1.520000e+001 -2.000000e-001 0.000000e+000
         vertex 1.100000e+001 -2.000000e-001 0.000000e+000
      endloop
   endfacet
   facet normal -1.221295e-016 1.000000e+000 0.000000e+000
      outer loop
         vertex 1.100000e+001 -4.918699e-016 1.000000e-002
         vertex 1.500000e+001 -3.351954e-018 1.000000e-002
         vertex 1.100000e+001 -4.918699e-016 0.000000e+000
      endloop
   endfacet
   facet normal -1.221295e-016 1.000000e+000 0.000000e+000
      outer loop
         vertex 1.100000e+001 -4.918699e-016 0.000000e+000
         vertex 1.500000e+001 -3.351954e-018 1.000000e-002
         vertex 1.500000e+001 -3.351954e-018 0.000000e+000
      endloop
   endfacet
   facet normal 1.221295e-016 -1.000000e+000 0.000000e+000
      outer loop
         vertex 1.520000e+001 -2.000000e-001 0.000000e+000
         vertex 1.520000e+001 -2.000000e-001 1.000000e-002
         vertex 1.100000e+001 -2.000000e-001 0.000000e+000
      endloop
   endfacet
   facet normal 1.221295e-016 -1.000000e+000 0.000000e+000
      outer loop
         vertex 1.100000e+001 -2.000000e-001 0.000000e+000
         vertex 1.520000e+001 -2.000000e-001 1.000000e-002
         vertex 1.100000e+001 -2.000000e-001 1.000000e-002
      endloop
   endfacet
   facet normal -1.000000e+000 0.000000e+000 0.000000e+000
      outer loop
         vertex 1.100000e+001 -6.661338e-016 1.000000e-002
         vertex 1.100000e+001 -4.440892e-016 0.000000e+000
         vertex 1.100000e+001 -2.000000e-001 1.000000e-002
      endloop
   endfacet
   facet normal -1.000000e+000 0.000000e+000 0.000000e+000
      outer loop
         vertex 1.100000e+001 -2.000000e-001 1.000000e-002
         vertex 1.100000e+001 -4.440892e-016 0.000000e+000
         vertex 1.100000e+001 -2.000000e-001 0.000000e+000
      endloop
   endfacet
   facet normal 1.221295e-016 -1.000000e+000 0.000000e+000
      outer loop
         vertex 5.200000e+000 -2.000000e-001 1.000000e-002
         vertex 5.200000e+000 -2.000000e-001 0.000000e+000
         vertex 8.000000e+000 -2.000000e-001 1.000000e-002
      endloop
   endfacet
   facet normal 1.221295e-016 -1.000000e+000 0.000000e+000
      outer loop
         vertex 8.000000e+000 -2.000000e-001 1.000000e-002
         vertex 5.200000e+000 -2.000000e-001 0.000000e+000
         vertex 8.000000e+000 -2.000000e-001 0.000000e+000
      endloop
   endfacet
   facet normal -1.221295e-016 1.000000e+000 0.000000e+000
      outer loop
         vertex 8.000000e+000 -8.582584e-016 0.000000e+000
         vertex 5.000000e+000 -1.224647e-015 0.000000e+000
         vertex 8.000000e+000 -8.582584e-016 1.000000e-002
      endloop
   endfacet
   facet normal -1.221295e-016 1.000000e+000 0.000000e+000
      outer loop
         vertex 8.000000e+000 -8.582584e-016 1.000000e-002
         vertex 5.000000e+000 -1.224647e-015 0.000000e+000
         vertex 5.000000e+000 -1.224647e-015 1.000000e-002
      endloop
   endfacet
   facet normal 0.000000e+000 0.000000e+000 1.000000e+000
      outer loop
         vertex 8.000000e+000 -2.000000e-001 1.000000e-002
         vertex 8.000000e+000 -6.661338e-016 1.000000e-002
         vertex 5.200000e+000 -2.000000e-001 1.000000e-002
      endloop
   endfacet
   facet normal 0.000000e+000 0.000000e+000 1.000000e+000
      outer loop
         vertex 5.200000e+000 -2.000000e-001 1.000000e-002
         vertex 8.000000e+000 -6.661338e-016 1.000000e-002
         vertex 5.000000e+000 -1.224647e-015 1.000000e-002
      endloop
   endfacet
   facet normal 0.000000e+000 0.000000e+000 1.000000e+000
      outer loop
         vertex 5.200000e+000 -2.000000e-001 1.000000e-002
         vertex 5.000000e+000 -1.224647e-015 1.000000e-002
         vertex 5.200000e+000 -1.000000e+001 1.000000e-002
      endloop
   endfacet
   facet normal 0.000000e+000 0.000000e+000 1.000000e+000
      outer loop
         vertex 5.200000e+000 -1.000000e+001 1.000000e-002
         vertex 5.000000e+000 -1.224647e-015 1.000000e-002
         vertex 5.000000e+000 -1.000000e+001 1.000000e-002
      endloop
   endfacet
   facet normal 0.000000e+000 0.000000e+000 -1.000000e+000
      outer loop
         vertex 5.200000e+000 -1.000000e+001 0.000000e+000
         vertex 5.000000e+000 -1.000000e+001 0.000000e+000
         vertex 5.200000e+000 -2.000000e-001 0.000000e+000
      endloop
   endfacet
   facet normal 0.000000e+000 0.000000e+000 -1.000000e+000
      outer loop
         vertex 5.200000e+000 -2.000000e-001 0.000000e+000
         vertex 5.000000e+000 -1.000000e+001 0.000000e+000
         vertex 5.000000e+000 -1.224647e-015 0.000000e+000
      endloop
   endfacet
   facet normal 0.000000e+000 0.000000e+000 -1.000000e+000
      outer loop
         vertex 5.200000e+000 -2.000000e-001 0.000000e+000
         vertex 5.000000e+000 -1.224647e-015 0.000000e+000
         vertex 8.000000e+000 -2.000000e-001 0.000000e+000
      endloop
   endfacet
   facet normal 0.000000e+000 0.000000e+000 -1.000000e+000
      outer loop
         vertex 8.000000e+000 -2.000000e-001 0.000000e+000
         vertex 5.000000e+000 -1.224647e-015 0.000000e+000
         vertex 8.000000e+000 -6.661338e-016 0.000000e+000
      endloop
   endfacet
   facet normal -1.000000e+000 -1.776357e-016 0.000000e+000
      outer loop
         vertex 5.000000e+000 -1.000000e+001 1.000000e-002
         vertex 5.000000e+000 -1.224647e-015 1.000000e-002
         vertex 5.000000e+000 -1.000000e+001 0.000000e+000
      endloop
   endfacet
   facet normal -1.000000e+000 -1.776357e-016 0.000000e+000
      outer loop
         vertex 5.000000e+000 -1.000000e+001 0.000000e+000
         vertex 5.000000e+000 -1.224647e-015 1.000000e-002
         vertex 5.000000e+000 -1.224647e-015 0.000000e+000
      endloop
   endfacet
   facet normal 0.000000e+000 -1.000000e+000 0.000000e+000
      outer loop
         vertex 5.200000e+000 -1.000000e+001 1.000000e-002
         vertex 5.000000e+000 -1.000000e+001 1.000000e-002
         vertex 5.200000e+000 -1.000000e+001 0.000000e+000
      endloop
   endfacet
   facet normal 0.000000e+000 -1.000000e+000 0.000000e+000
      outer loop
         vertex 5.200000e+000 -1.000000e+001 0.000000e+000
         vertex 5.000000e+000 -1.000000e+001 1.000000e-002
         vertex 5.000000e+000 -1.000000e+001 0.000000e+000
      endloop
   endfacet
   facet normal 1.000000e+000 1.776357e-016 0.000000e+000
      outer loop
         vertex 5.200000e+000 -2.000000e-001 1.000000e-002
         vertex 5.200000e+000 -1.000000e+001 1.000000e-002
         vertex 5.200000e+000 -2.000000e-001 0.000000e+000
      endloop
   endfacet
   facet normal 1.000000e+000 1.776357e-016 0.000000e+000
      outer loop
         vertex 5.200000e+000 -2.000000e-001 0.000000e+000
         vertex 5.200000e+000 -1.000000e+001 1.000000e-002
         vertex 5.200000e+000 -1.000000e+001 0.000000e+000
      endloop
   endfacet
   facet normal 1.000000e+000 0.000000e+000 0.000000e+000
      outer loop
         vertex 8.000000e+000 -6.661338e-016 0.000000e+000
         vertex 8.000000e+000 -6.661338e-016 1.000000e-002
         vertex 8.000000e+000 -2.000000e-001 0.000000e+000
      endloop
   endfacet
   facet normal 1.000000e+000 0.000000e+000 0.000000e+000
      outer loop
         vertex 8.000000e+000 -2.000000e-001 0.000000e+000
         vertex 8.000000e+000 -6.661338e-016 1.000000e-002
         vertex 8.000000e+000 -2.000000e-001 1.000000e-002
      endloop
   endfacet
endsolid