solid mase_like_10
   facet normal -1.000000e+000 -2.220446e-016 0.000000e+000
      outer loop
         vertex -3.500000e+000 1.200000e+000 1.500000e+000
         vertex -3.500000e+000 3.200000e+000 1.500000e+000
         vertex -3.500000e+000 1.200000e+000 0.000000e+000
      endloop
   endfacet
   facet normal -1.000000e+000 -2.220446e-016 0.000000e+000
      outer loop
         vertex -3.500000e+000 1.200000e+000 0.000000e+000
         vertex -3.500000e+000 3.200000e+000 1.500000e+000
         vertex -3.500000e+000 3.200000e+000 0.000000e+000
      endloop
   endfacet
   facet normal 0.000000e+000 -1.000000e+000 0.000000e+000
      outer loop
         vertex -3.300000e+000 1.200000e+000 1.500000e+000
         vertex -3.500000e+000 1.200000e+000 1.500000e+000
         vertex -3.300000e+000 1.200000e+000 0.000000e+000
      endloop
   endfacet
   facet normal 0.000000e+000 -1.000000e+000 0.000000e+000
      outer loop
         vertex -3.300000e+000 1.200000e+000 0.000000e+000
         vertex -3.500000e+000 1.200000e+000 1.500000e+000
         vertex -3.500000e+000 1.200000e+000 0.000000e+000
      endloop
   endfacet
   facet normal 1.000000e+000 2.220446e-016 0.000000e+000
      outer loop
         vertex -3.300000e+000 3.200000e+000 1.500000e+000
         vertex -3.300000e+000 1.200000e+000 1.500000e+000
         vertex -3.300000e+000 3.200000e+000 0.000000e+000
      endloop
   endfacet
   facet normal 1.000000e+000 2.220446e-016 0.000000e+000
      outer loop
         vertex -3.300000e+000 3.200000e+000 0.000000e+000
         vertex -3.300000e+000 1.200000e+000 1.500000e+000
         vertex -3.300000e+000 1.200000e+000 0.000000e+000
      endloop
   endfacet
   facet normal 0.000000e+000 1.000000e+000 0.000000e+000
      outer loop
         vertex -3.500000e+000 3.200000e+000 1.500000e+000
         vertex -3.300000e+000 3.200000e+000 1.500000e+000
         vertex -3.500000e+000 3.200000e+000 0.000000e+000
      endloop
   endfacet
   facet normal 0.000000e+000 1.000000e+000 0.000000e+000
      outer loop
         vertex -3.500000e+000 3.200000e+000 0.000000e+000
         vertex -3.300000e+000 3.200000e+000 1.500000e+000
         vertex -3.300000e+000 3.200000e+000 0.000000e+000
      endloop
   endfacet
   facet normal 0.000000e+000 0.000000e+000 1.000000e+000
      outer loop
         vertex -3.300000e+000 1.200000e+000 1.500000e+000
         vertex -3.300000e+000 3.200000e+000 1.500000e+000
         vertex -3.500000e+000 1.200000e+000 1.500000e+000
      endloop
   endfacet
   facet normal 0.000000e+000 0.000000e+000 1.000000e+000
      outer loop
         vertex -3.500000e+000 1.200000e+000 1.500000e+000
         vertex -3.300000e+000 3.200000e+000 1.500000e+000
         vertex -3.500000e+000 3.200000e+000 1.500000e+000
      endloop
   endfacet
   facet normal 0.000000e+000 0.000000e+000 -1.000000e+000
      outer loop
         vertex -3.300000e+000 3.200000e+000 0.000000e+000
         vertex -3.300000e+000 1.200000e+000 0.000000e+000
         vertex -3.500000e+000 3.200000e+000 0.000000e+000
      endloop
   endfacet
   facet normal 0.000000e+000 0.000000e+000 -1.000000e+000
      outer loop
         vertex -3.500000e+000 3.200000e+000 0.000000e+000
         vertex -3.300000e+000 1.200000e+000 0.000000e+000
         vertex -3.500000e+000 1.200000e+000 0.000000e+000
      endloop
   endfacet
   facet normal -1.000000e+000 -4.440892e-016 0.000000e+000
      outer loop
         vertex 2.500000e+000 1.200000e+000 1.500000e+000
         vertex 2.500000e+000 2.200000e+000 1.500000e+000
         vertex 2.500000e+000 1.200000e+000 0.000000e+000
      endloop
   endfacet
   facet normal -1.000000e+000 -4.440892e-016 0.000000e+000
      outer loop
         vertex 2.500000e+000 1.200000e+000 0.000000e+000
         vertex 2.500000e+000 2.200000e+000 1.500000e+000
         vertex 2.500000e+000 2.200000e+000 0.000000e+000
      endloop
   endfacet
   facet normal 0.000000e+000 -1.000000e+000 0.000000e+000
      outer loop
         vertex 2.700000e+000 1.200000e+000 1.500000e+000
         vertex 2.500000e+000 1.200000e+000 1.500000e+000
         vertex 2.700000e+000 1.200000e+000 0.000000e+000
      endloop
   endfacet
   facet normal 0.000000e+000 -1.000000e+000 0.000000e+000
      outer loop
         vertex 2.700000e+000 1.200000e+000 0.000000e+000
         vertex 2.500000e+000 1.200000e+000 1.500000e+000
         vertex 2.500000e+000 1.200000e+000 0.000000e+000
      endloop
   endfacet
   facet normal 1.000000e+000 4.440892e-016 0.000000e+000
      outer loop
         vertex 2.700000e+000 2.400000e+000 1.500000e+000
         vertex 2.700000e+000 1.200000e+000 1.500000e+000
         vertex 2.700000e+000 2.400000e+000 0.000000e+000
      endloop
   endfacet
   facet normal 1.000000e+000 4.440892e-016 0.000000e+000
      outer loop
         vertex 2.700000e+000 2.400000e+000 0.000000e+000
         vertex 2.700000e+000 1.200000e+000 1.500000e+000
         vertex 2.700000e+000 1.200000e+000 0.000000e+000
      endloop
   endfacet
   facet normal 0.000000e+000 1.000000e+000 0.000000e+000
      outer loop
         vertex -1.700000e+000 2.400000e+000 1.500000e+000
         vertex 2.700000e+000 2.400000e+000 1.500000e+000
         vertex -1.700000e+000 2.400000e+000 0.000000e+000
      endloop
   endfacet
   facet normal 0.000000e+000 1.000000e+000 0.000000e+000
      outer loop
         vertex -1.700000e+000 2.400000e+000 0.000000e+000
         vertex 2.700000e+000 2.400000e+000 1.500000e+000
         vertex 2.700000e+000 2.400000e+000 0.000000e+000
      endloop
   endfacet
   facet normal -1.000000e+000 0.000000e+000 0.000000e+000
      outer loop
         vertex -1.700000e+000 2.200000e+000 1.500000e+000
         vertex -1.700000e+000 2.400000e+000 1.500000e+000
         vertex -1.700000e+000 2.200000e+000 0.000000e+000
      endloop
   endfacet
   facet normal -1.000000e+000 0.000000e+000 0.000000e+000
      outer loop
         vertex -1.700000e+000 2.200000e+000 0.000000e+000
         vertex -1.700000e+000 2.400000e+000 1.500000e+000
         vertex -1.700000e+000 2.400000e+000 0.000000e+000
      endloop
   endfacet
   facet normal 0.000000e+000 -1.000000e+000 0.000000e+000
      outer loop
         vertex 2.500000e+000 2.200000e+000 1.500000e+000
         vertex -1.700000e+000 2.200000e+000 1.500000e+000
         vertex 2.500000e+000 2.200000e+000 0.000000e+000
      endloop
   endfacet
   facet normal 0.000000e+000 -1.000000e+000 0.000000e+000
      outer loop
         vertex 2.500000e+000 2.200000e+000 0.000000e+000
         vertex -1.700000e+000 2.200000e+000 1.500000e+000
         vertex -1.700000e+000 2.200000e+000 0.000000e+000
      endloop
   endfacet
   facet normal 0.000000e+000 0.000000e+000 1.000000e+000
      outer loop
         vertex 2.500000e+000 1.200000e+000 1.500000e+000
         vertex 2.700000e+000 1.200000e+000 1.500000e+000
         vertex 2.500000e+000 2.200000e+000 1.500000e+000
      endloop
   endfacet
   facet normal 0.000000e+000 0.000000e+000 1.000000e+000
      outer loop
         vertex 2.500000e+000 2.200000e+000 1.500000e+000
         vertex 2.700000e+000 1.200000e+000 1.500000e+000
         vertex 2.700000e+000 2.400000e+000 1.500000e+000
      endloop
   endfacet
   facet normal 0.000000e+000 0.000000e+000 1.000000e+000
      outer loop
         vertex 2.500000e+000 2.200000e+000 1.500000e+000
         vertex 2.700000e+000 2.400000e+000 1.500000e+000
         vertex -1.700000e+000 2.200000e+000 1.500000e+000
      endloop
   endfacet
   facet normal 0.000000e+000 0.000000e+000 1.000000e+000
      outer loop
         vertex -1.700000e+000 2.200000e+000 1.500000e+000
         vertex 2.700000e+000 2.400000e+000 1.500000e+000
         vertex -1.700000e+000 2.400000e+000 1.500000e+000
      endloop
   endfacet
   facet normal 0.000000e+000 0.000000e+000 -1.000000e+000
      outer loop
         vertex -1.700000e+000 2.200000e+000 0.000000e+000
         vertex -1.700000e+000 2.400000e+000 0.000000e+000
         vertex 2.500000e+000 2.200000e+000 0.000000e+000
      endloop
   endfacet
   facet normal 0.000000e+000 0.000000e+000 -1.000000e+000
      outer loop
         vertex 2.500000e+000 2.200000e+000 0.000000e+000
         vertex -1.700000e+000 2.400000e+000 0.000000e+000
         vertex 2.700000e+000 2.400000e+000 0.000000e+000
      endloop
   endfacet
   facet normal 0.000000e+000 0.000000e+000 -1.000000e+000
      outer loop
         vertex 2.500000e+000 2.200000e+000 0.000000e+000
         vertex 2.700000e+000 2.400000e+000 0.000000e+000
         vertex 2.500000e+000 1.200000e+000 0.000000e+000
      endloop
   endfacet
   facet normal 0.000000e+000 0.000000e+000 -1.000000e+000
      outer loop
         vertex 2.500000e+000 1.200000e+000 0.000000e+000
         vertex 2.700000e+000 2.400000e+000 0.000000e+000
         vertex 2.700000e+000 1.200000e+000 0.000000e+000
      endloop
   endfacet
   facet normal 1.268826e-016 -1.000000e+000 0.000000e+000
      outer loop
         vertex 1.000000e+000 -3.000000e+000 1.500000e+000
         vertex -2.500000e+000 -3.000000e+000 1.500000e+000
         vertex 1.000000e+000 -3.000000e+000 0.000000e+000
      endloop
   endfacet
   facet normal 1.268826e-016 -1.000000e+000 0.000000e+000
      outer loop
         vertex 1.000000e+000 -3.000000e+000 0.000000e+000
         vertex -2.500000e+000 -3.000000e+000 1.500000e+000
         vertex -2.500000e+000 -3.000000e+000 0.000000e+000
      endloop
   endfacet
   facet normal 1.000000e+000 0.000000e+000 0.000000e+000
      outer loop
         vertex 1.000000e+000 -2.800000e+000 1.500000e+000
         vertex 1.000000e+000 -3.000000e+000 1.500000e+000
         vertex 1.000000e+000 -2.800000e+000 0.000000e+000
      endloop
   endfacet
   facet normal 1.000000e+000 0.000000e+000 0.000000e+000
      outer loop
         vertex 1.000000e+000 -2.800000e+000 0.000000e+000
         vertex 1.000000e+000 -3.000000e+000 1.500000e+000
         vertex 1.000000e+000 -3.000000e+000 0.000000e+000
      endloop
   endfacet
   facet normal -1.268826e-016 1.000000e+000 0.000000e+000
      outer loop
         vertex -2.300000e+000 -2.800000e+000 1.500000e+000
         vertex 1.000000e+000 -2.800000e+000 1.500000e+000
         vertex -2.300000e+000 -2.800000e+000 0.000000e+000
      endloop
   endfacet
   facet normal -1.268826e-016 1.000000e+000 0.000000e+000
      outer loop
         vertex -2.300000e+000 -2.800000e+000 0.000000e+000
         vertex 1.000000e+000 -2.800000e+000 1.500000e+000
         vertex 1.000000e+000 -2.800000e+000 0.000000e+000
      endloop
   endfacet
   facet normal 1.000000e+000 1.480297e-016 0.000000e+000
      outer loop
         vertex -2.300000e+000 -2.000000e-001 1.500000e+000
         vertex -2.300000e+000 -2.800000e+000 1.500000e+000
         vertex -2.300000e+000 -2.000000e-001 0.000000e+000
      endloop
   endfacet
   facet normal 1.000000e+000 1.480297e-016 0.000000e+000
      outer loop
         vertex -2.300000e+000 -2.000000e-001 0.000000e+000
         vertex -2.300000e+000 -2.800000e+000 1.500000e+000
         vertex -2.300000e+000 -2.800000e+000 0.000000e+000
      endloop
   endfacet
   facet normal 1.198825e-016 -1.000000e+000 0.000000e+000
      outer loop
         vertex 1.500000e+000 -2.000000e-001 1.500000e+000
         vertex -2.300000e+000 -2.000000e-001 1.500000e+000
         vertex 1.500000e+000 -2.000000e-001 0.000000e+000
      endloop
   endfacet
   facet normal 1.198825e-016 -1.000000e+000 0.000000e+000
      outer loop
         vertex 1.500000e+000 -2.000000e-001 0.000000e+000
         vertex -2.300000e+000 -2.000000e-001 1.500000e+000
         vertex -2.300000e+000 -2.000000e-001 0.000000e+000
      endloop
   endfacet
   facet normal 1.000000e+000 0.000000e+000 0.000000e+000
      outer loop
         vertex 1.500000e+000 -1.032876e-017 1.500000e+000
         vertex 1.500000e+000 -2.000000e-001 1.500000e+000
         vertex 1.500000e+000 -1.032876e-017 0.000000e+000
      endloop
   endfacet
   facet normal 1.000000e+000 0.000000e+000 0.000000e+000
      outer loop
         vertex 1.500000e+000 -1.032876e-017 0.000000e+000
         vertex 1.500000e+000 -2.000000e-001 1.500000e+000
         vertex 1.500000e+000 -2.000000e-001 0.000000e+000
      endloop
   endfacet
   facet normal -1.198825e-016 1.000000e+000 0.000000e+000
      outer loop
         vertex -2.500000e+000 -4.898587e-016 1.500000e+000
         vertex 1.500000e+000 -1.032876e-017 1.500000e+000
         vertex -2.500000e+000 -4.898587e-016 0.000000e+000
      endloop
   endfacet
   facet normal -1.198825e-016 1.000000e+000 0.000000e+000
      outer loop
         vertex -2.500000e+000 -4.898587e-016 0.000000e+000
         vertex 1.500000e+000 -1.032876e-017 1.500000e+000
         vertex 1.500000e+000 -1.032876e-017 0.000000e+000
      endloop
   endfacet
   facet normal -1.000000e+000 -1.480297e-016 0.000000e+000
      outer loop
         vertex -2.500000e+000 -3.000000e+000 1.500000e+000
         vertex -2.500000e+000 -4.898587e-016 1.500000e+000
         vertex -2.500000e+000 -3.000000e+000 0.000000e+000
      endloop
   endfacet
   facet normal -1.000000e+000 -1.480297e-016 0.000000e+000
      outer loop
         vertex -2.500000e+000 -3.000000e+000 0.000000e+000
         vertex -2.500000e+000 -4.898587e-016 1.500000e+000
         vertex -2.500000e+000 -4.898587e-016 0.000000e+000
      endloop
   endfacet
   facet normal 0.000000e+000 0.000000e+000 1.000000e+000
      outer loop
         vertex 1.500000e+000 -2.000000e-001 1.500000e+000
         vertex 1.500000e+000 -1.032876e-017 1.500000e+000
         vertex -2.300000e+000 -2.000000e-001 1.500000e+000
      endloop
   endfacet
   facet normal 0.000000e+000 0.000000e+000 1.000000e+000
      outer loop
         vertex -2.300000e+000 -2.000000e-001 1.500000e+000
         vertex 1.500000e+000 -1.032876e-017 1.500000e+000
         vertex -2.500000e+000 -4.898587e-016 1.500000e+000
      endloop
   endfacet
   facet normal 0.000000e+000 0.000000e+000 1.000000e+000
      outer loop
         vertex -2.300000e+000 -2.000000e-001 1.500000e+000
         vertex -2.500000e+000 -4.898587e-016 1.500000e+000
         vertex -2.300000e+000 -2.800000e+000 1.500000e+000
      endloop
   endfacet
   facet normal 0.000000e+000 0.000000e+000 1.000000e+000
      outer loop
         vertex -2.300000e+000 -2.800000e+000 1.500000e+000
         vertex -2.500000e+000 -4.898587e-016 1.500000e+000
         vertex -2.500000e+000 -3.000000e+000 1.500000e+000
      endloop
   endfacet
   facet normal 0.000000e+000 0.000000e+000 1.000000e+000
      outer loop
         vertex -2.300000e+000 -2.800000e+000 1.500000e+000
         vertex -2.500000e+000 -3.000000e+000 1.500000e+000
         vertex 1.000000e+000 -2.800000e+000 1.500000e+000
      endloop
   endfacet
   facet normal 0.000000e+000 0.000000e+000 1.000000e+000
      outer loop
         vertex 1.000000e+000 -2.800000e+000 1.500000e+000
         vertex -2.500000e+000 -3.000000e+000 1.500000e+000
         vertex 1.000000e+000 -3.000000e+000 1.500000e+000
      endloop
   endfacet
   facet normal 0.000000e+000 0.000000e+000 -1.000000e+000
      outer loop
         vertex 1.000000e+000 -2.800000e+000 0.000000e+000
         vertex 1.000000e+000 -3.000000e+000 0.000000e+000
         vertex -2.300000e+000 -2.800000e+000 0.000000e+000
      endloop
   endfacet
   facet normal 0.000000e+000 0.000000e+000 -1.000000e+000
      outer loop
         vertex -2.300000e+000 -2.800000e+000 0.000000e+000
         vertex 1.000000e+000 -3.000000e+000 0.000000e+000
         vertex -2.500000e+000 -3.000000e+000 0.000000e+000
      endloop
   endfacet
   facet normal 0.000000e+000 0.000000e+000 -1.000000e+000
      outer loop
         vertex -2.300000e+000 -2.800000e+000 0.000000e+000
         vertex -2.500000e+000 -3.000000e+000 0.000000e+000
         vertex -2.300000e+000 -2.000000e-001 0.000000e+000
      endloop
   endfacet
   facet normal 0.000000e+000 0.000000e+000 -1.000000e+000
      outer loop
         vertex -2.300000e+000 -2.000000e-001 0.000000e+000
         vertex -2.500000e+000 -3.000000e+000 0.000000e+000
         vertex -2.500000e+000 -4.898587e-016 0.000000e+000
      endloop
   endfacet
   facet normal 0.000000e+000 0.000000e+000 -1.000000e+000
      outer loop
         vertex -2.300000e+000 -2.000000e-001 0.000000e+000
         vertex -2.500000e+000 -4.898587e-016 0.000000e+000
         vertex 1.500000e+000 -2.000000e-001 0.000000e+000
      endloop
   endfacet
   facet normal 0.000000e+000 0.000000e+000 -1.000000e+000
      outer loop
         vertex 1.500000e+000 -2.000000e-001 0.000000e+000
         vertex -2.500000e+000 -4.898587e-016 0.000000e+000
         vertex 1.500000e+000 -1.032876e-017 0.000000e+000
      endloop
   endfacet
   facet normal -1.000000e+000 -2.537653e-016 0.000000e+000
      outer loop
         vertex 2.500000e+000 -5.000000e+000 1.500000e+000
         vertex 2.500000e+000 -1.500000e+000 1.500000e+000
         vertex 2.500000e+000 -5.000000e+000 0.000000e+000
      endloop
   endfacet
   facet normal -1.000000e+000 -2.537653e-016 0.000000e+000
      outer loop
         vertex 2.500000e+000 -5.000000e+000 0.000000e+000
         vertex 2.500000e+000 -1.500000e+000 1.500000e+000
         vertex 2.500000e+000 -1.500000e+000 0.000000e+000
      endloop
   endfacet
   facet normal 0.000000e+000 -1.000000e+000 0.000000e+000
      outer loop
         vertex 2.700000e+000 -5.000000e+000 1.500000e+000
         vertex 2.500000e+000 -5.000000e+000 1.500000e+000
         vertex 2.700000e+000 -5.000000e+000 0.000000e+000
      endloop
   endfacet
   facet normal 0.000000e+000 -1.000000e+000 0.000000e+000
      outer loop
         vertex 2.700000e+000 -5.000000e+000 0.000000e+000
         vertex 2.500000e+000 -5.000000e+000 1.500000e+000
         vertex 2.500000e+000 -5.000000e+000 0.000000e+000
      endloop
   endfacet
   facet normal 1.000000e+000 2.537653e-016 0.000000e+000
      outer loop
         vertex 2.700000e+000 -1.300000e+000 1.500000e+000
         vertex 2.700000e+000 -5.000000e+000 1.500000e+000
         vertex 2.700000e+000 -1.300000e+000 0.000000e+000
      endloop
   endfacet
   facet normal 1.000000e+000 2.537653e-016 0.000000e+000
      outer loop
         vertex 2.700000e+000 -1.300000e+000 0.000000e+000
         vertex 2.700000e+000 -5.000000e+000 1.500000e+000
         vertex 2.700000e+000 -5.000000e+000 0.000000e+000
      endloop
   endfacet
   facet normal 1.480297e-016 1.000000e+000 0.000000e+000
      outer loop
         vertex 1.000000e+000 -1.300000e+000 1.500000e+000
         vertex 2.700000e+000 -1.300000e+000 1.500000e+000
         vertex 1.000000e+000 -1.300000e+000 0.000000e+000
      endloop
   endfacet
   facet normal 1.480297e-016 1.000000e+000 0.000000e+000
      outer loop
         vertex 1.000000e+000 -1.300000e+000 0.000000e+000
         vertex 2.700000e+000 -1.300000e+000 1.500000e+000
         vertex 2.700000e+000 -1.300000e+000 0.000000e+000
      endloop
   endfacet
   facet normal -1.000000e+000 0.000000e+000 0.000000e+000
      outer loop
         vertex 1.000000e+000 -1.500000e+000 1.500000e+000
         vertex 1.000000e+000 -1.300000e+000 1.500000e+000
         vertex 1.000000e+000 -1.500000e+000 0.000000e+000
      endloop
   endfacet
   facet normal -1.000000e+000 0.000000e+000 0.000000e+000
      outer loop
         vertex 1.000000e+000 -1.500000e+000 0.000000e+000
         vertex 1.000000e+000 -1.300000e+000 1.500000e+000
         vertex 1.000000e+000 -1.300000e+000 0.000000e+000
      endloop
   endfacet
   facet normal -1.480297e-016 -1.000000e+000 0.000000e+000
      outer loop
         vertex 2.500000e+000 -1.500000e+000 1.500000e+000
         vertex 1.000000e+000 -1.500000e+000 1.500000e+000
         vertex 2.500000e+000 -1.500000e+000 0.000000e+000
      endloop
   endfacet
   facet normal -1.480297e-016 -1.000000e+000 0.000000e+000
      outer loop
         vertex 2.500000e+000 -1.500000e+000 0.000000e+000
         vertex 1.000000e+000 -1.500000e+000 1.500000e+000
         vertex 1.000000e+000 -1.500000e+000 0.000000e+000
      endloop
   endfacet
   facet normal 0.000000e+000 0.000000e+000 1.000000e+000
      outer loop
         vertex 2.500000e+000 -5.000000e+000 1.500000e+000
         vertex 2.700000e+000 -5.000000e+000 1.500000e+000
         vertex 2.500000e+000 -1.500000e+000 1.500000e+000
      endloop
   endfacet
   facet normal 0.000000e+000 0.000000e+000 1.000000e+000
      outer loop
         vertex 2.500000e+000 -1.500000e+000 1.500000e+000
         vertex 2.700000e+000 -5.000000e+000 1.500000e+000
         vertex 2.700000e+000 -1.300000e+000 1.500000e+000
      endloop
   endfacet
   facet normal 0.000000e+000 0.000000e+000 1.000000e+000
      outer loop
         vertex 2.500000e+000 -1.500000e+000 1.500000e+000
         vertex 2.700000e+000 -1.300000e+000 1.500000e+000
         vertex 1.000000e+000 -1.500000e+000 1.500000e+000
      endloop
   endfacet
   facet normal 0.000000e+000 0.000000e+000 1.000000e+000
      outer loop
         vertex 1.000000e+000 -1.500000e+000 1.500000e+000
         vertex 2.700000e+000 -1.300000e+000 1.500000e+000
         vertex 1.000000e+000 -1.300000e+000 1.500000e+000
      endloop
   endfacet
   facet normal 0.000000e+000 0.000000e+000 -1.000000e+000
      outer loop
         vertex 1.000000e+000 -1.500000e+000 0.000000e+000
         vertex 1.000000e+000 -1.300000e+000 0.000000e+000
         vertex 2.500000e+000 -1.500000e+000 0.000000e+000
      endloop
   endfacet
   facet normal 0.000000e+000 0.000000e+000 -1.000000e+000
      outer loop
         vertex 2.500000e+000 -1.500000e+000 0.000000e+000
         vertex 1.000000e+000 -1.300000e+000 0.000000e+000
         vertex 2.700000e+000 -1.300000e+000 0.000000e+000
      endloop
   endfacet
   facet normal 0.000000e+000 0.000000e+000 -1.000000e+000
      outer loop
         vertex 2.500000e+000 -1.500000e+000 0.000000e+000
         vertex 2.700000e+000 -1.300000e+000 0.000000e+000
         vertex 2.500000e+000 -5.000000e+000 0.000000e+000
      endloop
   endfacet
   facet normal 0.000000e+000 0.000000e+000 -1.000000e+000
      outer loop
         vertex 2.500000e+000 -5.000000e+000 0.000000e+000
         vertex 2.700000e+000 -1.300000e+000 0.000000e+000
         vertex 2.700000e+000 -5.000000e+000 0.000000e+000
      endloop
   endfacet
   facet normal -1.000000e+000 -4.440892e-016 0.000000e+000
      outer loop
         vertex 1.500000e+000 4.000000e+000 1.500000e+000
         vertex 1.500000e+000 5.000000e+000 1.500000e+000
         vertex 1.500000e+000 4.000000e+000 0.000000e+000
      endloop
   endfacet
   facet normal -1.000000e+000 -4.440892e-016 0.000000e+000
      outer loop
         vertex 1.500000e+000 4.000000e+000 0.000000e+000
         vertex 1.500000e+000 5.000000e+000 1.500000e+000
         vertex 1.500000e+000 5.000000e+000 0.000000e+000
      endloop
   endfacet
   facet normal 0.000000e+000 -1.000000e+000 0.000000e+000
      outer loop
         vertex 1.700000e+000 4.000000e+000 1.500000e+000
         vertex 1.500000e+000 4.000000e+000 1.500000e+000
         vertex 1.700000e+000 4.000000e+000 0.000000e+000
      endloop
   endfacet
   facet normal 0.000000e+000 -1.000000e+000 0.000000e+000
      outer loop
         vertex 1.700000e+000 4.000000e+000 0.000000e+000
         vertex 1.500000e+000 4.000000e+000 1.500000e+000
         vertex 1.500000e+000 4.000000e+000 0.000000e+000
      endloop
   endfacet
   facet normal 1.000000e+000 4.440892e-016 0.000000e+000
      outer loop
         vertex 1.700000e+000 5.000000e+000 1.500000e+000
         vertex 1.700000e+000 4.000000e+000 1.500000e+000
         vertex 1.700000e+000 5.000000e+000 0.000000e+000
      endloop
   endfacet
   facet normal 1.000000e+000 4.440892e-016 0.000000e+000
      outer loop
         vertex 1.700000e+000 5.000000e+000 0.000000e+000
         vertex 1.700000e+000 4.000000e+000 1.500000e+000
         vertex 1.700000e+000 4.000000e+000 0.000000e+000
      endloop
   endfacet
   facet normal 0.000000e+000 1.000000e+000 0.000000e+000
      outer loop
         vertex 1.500000e+000 5.000000e+000 1.500000e+000
         vertex 1.700000e+000 5.000000e+000 1.500000e+000
         vertex 1.500000e+000 5.000000e+000 0.000000e+000
      endloop
   endfacet
   facet normal 0.000000e+000 1.000000e+000 0.000000e+000
      outer loop
         vertex 1.500000e+000 5.000000e+000 0.000000e+000
         vertex 1.700000e+000 5.000000e+000 1.500000e+000
         vertex 1.700000e+000 5.000000e+000 0.000000e+000
      endloop
   endfacet
   facet normal 0.000000e+000 0.000000e+000 1.000000e+000
      outer loop
         vertex 1.700000e+000 4.000000e+000 1.500000e+000
         vertex 1.700000e+000 5.000000e+000 1.500000e+000
         vertex 1.500000e+000 4.000000e+000 1.500000e+000
      endloop
   endfacet
   facet normal 0.000000e+000 0.000000e+000 1.000000e+000
      outer loop
         vertex 1.500000e+000 4.000000e+000 1.500000e+000
         vertex 1.700000e+000 5.000000e+000 1.500000e+000
         vertex 1.500000e+000 5.000000e+000 1.500000e+000
      endloop
   endfacet
   facet normal 0.000000e+000 0.000000e+000 -1.000000e+000
      outer loop
         vertex 1.700000e+000 5.000000e+000 0.000000e+000
         vertex 1.700000e+000 4.000000e+000 0.000000e+000
         vertex 1.500000e+000 5.000000e+000 0.000000e+000
      endloop
   endfacet
   facet normal 0.000000e+000 0.000000e+000 -1.000000e+000
      outer loop
         vertex 1.500000e+000 5.000000e+000 0.000000e+000
         vertex 1.700000e+000 4.000000e+000 0.000000e+000
         vertex 1.500000e+000 4.000000e+000 0.000000e+000
      endloop
   endfacet
   facet normal 0.000000e+000 1.000000e+000 0.000000e+000
      outer loop
         vertex 4.500000e+000 2.880125e+000 1.500000e+000
         vertex 5.000000e+000 2.880125e+000 1.500000e+000
         vertex 4.500000e+000 2.880125e+000 0.000000e+000
      endloop
   endfacet
   facet normal 0.000000e+000 1.000000e+000 0.000000e+000
      outer loop
         vertex 4.500000e+000 2.880125e+000 0.000000e+000
         vertex 5.000000e+000 2.880125e+000 1.500000e+000
         vertex 5.000000e+000 2.880125e+000 0.000000e+000
      endloop
   endfacet
   facet normal -1.000000e+000 0.000000e+000 0.000000e+000
      outer loop
         vertex 4.500000e+000 2.680125e+000 1.500000e+000
         vertex 4.500000e+000 2.880125e+000 1.500000e+000
         vertex 4.500000e+000 2.680125e+000 0.000000e+000
      endloop
   endfacet
   facet normal -1.000000e+000 0.000000e+000 0.000000e+000
      outer loop
         vertex 4.500000e+000 2.680125e+000 0.000000e+000
         vertex 4.500000e+000 2.880125e+000 1.500000e+000
         vertex 4.500000e+000 2.880125e+000 0.000000e+000
      endloop
   endfacet
   facet normal 0.000000e+000 -1.000000e+000 0.000000e+000
      outer loop
         vertex 5.000000e+000 2.680125e+000 1.500000e+000
         vertex 4.500000e+000 2.680125e+000 1.500000e+000
         vertex 5.000000e+000 2.680125e+000 0.000000e+000
      endloop
   endfacet
   facet normal 0.000000e+000 -1.000000e+000 0.000000e+000
      outer loop
         vertex 5.000000e+000 2.680125e+000 0.000000e+000
         vertex 4.500000e+000 2.680125e+000 1.500000e+000
         vertex 4.500000e+000 2.680125e+000 0.000000e+000
      endloop
   endfacet
   facet normal 1.000000e+000 0.000000e+000 0.000000e+000
      outer loop
         vertex 5.000000e+000 2.880125e+000 1.500000e+000
         vertex 5.000000e+000 2.680125e+000 1.500000e+000
         vertex 5.000000e+000 2.880125e+000 0.000000e+000
      endloop
   endfacet
   facet normal 1.000000e+000 0.000000e+000 0.000000e+000
      outer loop
         vertex 5.000000e+000 2.880125e+000 0.000000e+000
         vertex 5.000000e+000 2.680125e+000 1.500000e+000
         vertex 5.000000e+000 2.680125e+000 0.000000e+000
      endloop
   endfacet
   facet normal 0.000000e+000 0.000000e+000 1.000000e+000
      outer loop
         vertex 4.500000e+000 2.680125e+000 1.500000e+000
         vertex 5.000000e+000 2.680125e+000 1.500000e+000
         vertex 4.500000e+000 2.880125e+000 1.500000e+000
      endloop
   endfacet
   facet normal 0.000000e+000 0.000000e+000 1.000000e+000
      outer loop
         vertex 4.500000e+000 2.880125e+000 1.500000e+000
         vertex 5.000000e+000 2.680125e+000 1.500000e+000
         vertex 5.000000e+000 2.880125e+000 1.500000e+000
      endloop
   endfacet
   facet normal 0.000000e+000 0.000000e+000 -1.000000e+000
      outer loop
         vertex 5.000000e+000 2.680125e+000 0.000000e+000
         vertex 4.500000e+000 2.680125e+000 0.000000e+000
         vertex 5.000000e+000 2.880125e+000 0.000000e+000
      endloop
   endfacet
   facet normal 0.000000e+000 0.000000e+000 -1.000000e+000
      outer loop
         vertex 5.000000e+000 2.880125e+000 0.000000e+000
         vertex 4.500000e+000 2.680125e+000 0.000000e+000
         vertex 4.500000e+000 2.880125e+000 0.000000e+000
      endloop
   endfacet
   facet normal 0.000000e+000 1.000000e+000 0.000000e+000
      outer loop
         vertex 4.500000e+000 -2.000000e+000 1.500000e+000
         vertex 5.000000e+000 -2.000000e+000 1.500000e+000
         vertex 4.500000e+000 -2.000000e+000 0.000000e+000
      endloop
   endfacet
   facet normal 0.000000e+000 1.000000e+000 0.000000e+000
      outer loop
         vertex 4.500000e+000 -2.000000e+000 0.000000e+000
         vertex 5.000000e+000 -2.000000e+000 1.500000e+000
         vertex 5.000000e+000 -2.000000e+000 0.000000e+000
      endloop
   endfacet
   facet normal -1.000000e+000 0.000000e+000 0.000000e+000
      outer loop
         vertex 4.500000e+000 -2.200000e+000 1.500000e+000
         vertex 4.500000e+000 -2.000000e+000 1.500000e+000
         vertex 4.500000e+000 -2.200000e+000 0.000000e+000
      endloop
   endfacet
   facet normal -1.000000e+000 0.000000e+000 0.000000e+000
      outer loop
         vertex 4.500000e+000 -2.200000e+000 0.000000e+000
         vertex 4.500000e+000 -2.000000e+000 1.500000e+000
         vertex 4.500000e+000 -2.000000e+000 0.000000e+000
      endloop
   endfacet
   facet normal 0.000000e+000 -1.000000e+000 0.000000e+000
      outer loop
         vertex 5.000000e+000 -2.200000e+000 1.500000e+000
         vertex 4.500000e+000 -2.200000e+000 1.500000e+000
         vertex 5.000000e+000 -2.200000e+000 0.000000e+000
      endloop
   endfacet
   facet normal 0.000000e+000 -1.000000e+000 0.000000e+000
      outer loop
         vertex 5.000000e+000 -2.200000e+000 0.000000e+000
         vertex 4.500000e+000 -2.200000e+000 1.500000e+000
         vertex 4.500000e+000 -2.200000e+000 0.000000e+000
      endloop
   endfacet
   facet normal 1.000000e+000 0.000000e+000 0.000000e+000
      outer loop
         vertex 5.000000e+000 -2.000000e+000 1.500000e+000
         vertex 5.000000e+000 -2.200000e+000 1.500000e+000
         vertex 5.000000e+000 -2.000000e+000 0.000000e+000
      endloop
   endfacet
   facet normal 1.000000e+000 0.000000e+000 0.000000e+000
      outer loop
         vertex 5.000000e+000 -2.000000e+000 0.000000e+000
         vertex 5.000000e+000 -2.200000e+000 1.500000e+000
         vertex 5.000000e+000 -2.200000e+000 0.000000e+000
      endloop
   endfacet
   facet normal 0.000000e+000 0.000000e+000 1.000000e+000
      outer loop
         vertex 4.500000e+000 -2.200000e+000 1.500000e+000
         vertex 5.000000e+000 -2.200000e+000 1.500000e+000
         vertex 4.500000e+000 -2.000000e+000 1.500000e+000
      endloop
   endfacet
   facet normal 0.000000e+000 0.000000e+000 1.000000e+000
      outer loop
         vertex 4.500000e+000 -2.000000e+000 1.500000e+000
         vertex 5.000000e+000 -2.200000e+000 1.500000e+000
         vertex 5.000000e+000 -2.000000e+000 1.500000e+000
      endloop
   endfacet
   facet normal 0.000000e+000 0.000000e+000 -1.000000e+000
      outer loop
         vertex 5.000000e+000 -2.200000e+000 0.000000e+000
         vertex 4.500000e+000 -2.200000e+000 0.000000e+000
         vertex 5.000000e+000 -2.000000e+000 0.000000e+000
      endloop
   endfacet
   facet normal 0.000000e+000 0.000000e+000 -1.000000e+000
      outer loop
         vertex 5.000000e+000 -2.000000e+000 0.000000e+000
         vertex 4.500000e+000 -2.200000e+000 0.000000e+000
         vertex 4.500000e+000 -2.000000e+000 0.000000e+000
      endloop
   endfacet
   facet normal 1.000000e+000 0.000000e+000 0.000000e+000
      outer loop
         vertex -3.652522e+000 -4.500000e+000 1.500000e+000
         vertex -3.652522e+000 -5.000000e+000 1.500000e+000
         vertex -3.652522e+000 -4.500000e+000 0.000000e+000
      endloop
   endfacet
   facet normal 1.000000e+000 0.000000e+000 0.000000e+000
      outer loop
         vertex -3.652522e+000 -4.500000e+000 0.000000e+000
         vertex -3.652522e+000 -5.000000e+000 1.500000e+000
         vertex -3.652522e+000 -5.000000e+000 0.000000e+000
      endloop
   endfacet
   facet normal 0.000000e+000 1.000000e+000 0.000000e+000
      outer loop
         vertex -3.852522e+000 -4.500000e+000 1.500000e+000
         vertex -3.652522e+000 -4.500000e+000 1.500000e+000
         vertex -3.852522e+000 -4.500000e+000 0.000000e+000
      endloop
   endfacet
   facet normal 0.000000e+000 1.000000e+000 0.000000e+000
      outer loop
         vertex -3.852522e+000 -4.500000e+000 0.000000e+000
         vertex -3.652522e+000 -4.500000e+000 1.500000e+000
         vertex -3.652522e+000 -4.500000e+000 0.000000e+000
      endloop
   endfacet
   facet normal -1.000000e+000 0.000000e+000 0.000000e+000
      outer loop
         vertex -3.852522e+000 -5.000000e+000 1.500000e+000
         vertex -3.852522e+000 -4.500000e+000 1.500000e+000
         vertex -3.852522e+000 -5.000000e+000 0.000000e+000
      endloop
   endfacet
   facet normal -1.000000e+000 0.000000e+000 0.000000e+000
      outer loop
         vertex -3.852522e+000 -5.000000e+000 0.000000e+000
         vertex -3.852522e+000 -4.500000e+000 1.500000e+000
         vertex -3.852522e+000 -4.500000e+000 0.000000e+000
      endloop
   endfacet
   facet normal 0.000000e+000 -1.000000e+000 0.000000e+000
      outer loop
         vertex -3.652522e+000 -5.000000e+000 1.500000e+000
         vertex -3.852522e+000 -5.000000e+000 1.500000e+000
         vertex -3.652522e+000 -5.000000e+000 0.000000e+000
      endloop
   endfacet
   facet normal 0.000000e+000 -1.000000e+000 0.000000e+000
      outer loop
         vertex -3.652522e+000 -5.000000e+000 0.000000e+000
         vertex -3.852522e+000 -5.000000e+000 1.500000e+000
         vertex -3.852522e+000 -5.000000e+000 0.000000e+000
      endloop
   endfacet
   facet normal 0.000000e+000 0.000000e+000 1.000000e+000
      outer loop
         vertex -3.852522e+000 -4.500000e+000 1.500000e+000
         vertex -3.852522e+000 -5.000000e+000 1.500000e+000
         vertex -3.652522e+000 -4.500000e+000 1.500000e+000
      endloop
   endfacet
   facet normal 0.000000e+000 0.000000e+000 1.000000e+000
      outer loop
         vertex -3.652522e+000 -4.500000e+000 1.500000e+000
         vertex -3.852522e+000 -5.000000e+000 1.500000e+000
         vertex -3.652522e+000 -5.000000e+000 1.500000e+000
      endloop
   endfacet
   facet normal 0.000000e+000 0.000000e+000 -1.000000e+000
      outer loop
         vertex -3.852522e+000 -5.000000e+000 0.000000e+000
         vertex -3.852522e+000 -4.500000e+000 0.000000e+000
         vertex -3.652522e+000 -5.000000e+000 0.000000e+000
      endloop
   endfacet
   facet normal 0.000000e+000 0.000000e+000 -1.000000e+000
      outer loop
         vertex -3.652522e+000 -5.000000e+000 0.000000e+000
         vertex -3.852522e+000 -4.500000e+000 0.000000e+000
         vertex -3.652522e+000 -4.500000e+000 0.000000e+000
      endloop
   endfacet
   facet normal 0.000000e+000 -1.000000e+000 0.000000e+000
      outer loop
         vertex -4.500000e+000 -3.000000e+000 1.500000e+000
         vertex -5.000000e+000 -3.000000e+000 1.500000e+000
         vertex -4.500000e+000 -3.000000e+000 0.000000e+000
      endloop
   endfacet
   facet normal 0.000000e+000 -1.000000e+000 0.000000e+000
      outer loop
         vertex -4.500000e+000 -3.000000e+000 0.000000e+000
         vertex -5.000000e+000 -3.000000e+000 1.500000e+000
         vertex -5.000000e+000 -3.000000e+000 0.000000e+000
      endloop
   endfacet
   facet normal 1.000000e+000 0.000000e+000 0.000000e+000
      outer loop
         vertex -4.500000e+000 -2.800000e+000 1.500000e+000
         vertex -4.500000e+000 -3.000000e+000 1.500000e+000
         vertex -4.500000e+000 -2.800000e+000 0.000000e+000
      endloop
   endfacet
   facet normal 1.000000e+000 0.000000e+000 0.000000e+000
      outer loop
         vertex -4.500000e+000 -2.800000e+000 0.000000e+000
         vertex -4.500000e+000 -3.000000e+000 1.500000e+000
         vertex -4.500000e+000 -3.000000e+000 0.000000e+000
      endloop
   endfacet
   facet normal 0.000000e+000 1.000000e+000 0.000000e+000
      outer loop
         vertex -5.000000e+000 -2.800000e+000 1.500000e+000
         vertex -4.500000e+000 -2.800000e+000 1.500000e+000
         vertex -5.000000e+000 -2.800000e+000 0.000000e+000
      endloop
   endfacet
   facet normal 0.000000e+000 1.000000e+000 0.000000e+000
      outer loop
         vertex -5.000000e+000 -2.800000e+000 0.000000e+000
         vertex -4.500000e+000 -2.800000e+000 1.500000e+000
         vertex -4.500000e+000 -2.800000e+000 0.000000e+000
      endloop
   endfacet
   facet normal -1.000000e+000 0.000000e+000 0.000000e+000
      outer loop
         vertex -5.000000e+000 -3.000000e+000 1.500000e+000
         vertex -5.000000e+000 -2.800000e+000 1.500000e+000
         vertex -5.000000e+000 -3.000000e+000 0.000000e+000
      endloop
   endfacet
   facet normal -1.000000e+000 0.000000e+000 0.000000e+000
      outer loop
         vertex -5.000000e+000 -3.000000e+000 0.000000e+000
         vertex -5.000000e+000 -2.800000e+000 1.500000e+000
         vertex -5.000000e+000 -2.800000e+000 0.000000e+000
      endloop
   endfacet
   facet normal 0.000000e+000 0.000000e+000 1.000000e+000
      outer loop
         vertex -4.500000e+000 -2.800000e+000 1.500000e+000
         vertex -5.000000e+000 -2.800000e+000 1.500000e+000
         vertex -4.500000e+000 -3.000000e+000 1.500000e+000
      endloop
   endfacet
   facet normal 0.000000e+000 0.000000e+000 1.000000e+000
      outer loop
         vertex -4.500000e+000 -3.000000e+000 1.500000e+000
         vertex -5.000000e+000 -2.800000e+000 1.500000e+000
         vertex -5.000000e+000 -3.000000e+000 1.500000e+000
      endloop
   endfacet
   facet normal 0.000000e+000 0.000000e+000 -1.000000e+000
      outer loop
         vertex -5.000000e+000 -2.800000e+000 0.000000e+000
         vertex -4.500000e+000 -2.800000e+000 0.000000e+000
         vertex -5.000000e+000 -3.000000e+000 0.000000e+000
      endloop
   endfacet
   facet normal 0.000000e+000 0.000000e+000 -1.000000e+000
      outer loop
         vertex -5.000000e+000 -3.000000e+000 0.000000e+000
         vertex -4.500000e+000 -2.800000e+000 0.000000e+000
         vertex -4.500000e+000 -3.000000e+000 0.000000e+000
      endloop
   endfacet
   facet normal 0.000000e+000 0.000000e+000 1.000000e+000
      outer loop
         vertex 4.800000e+000 4.800000e+000 1.500000e+000
         vertex 5.000000e+000 5.000000e+000 1.500000e+000
         vertex -4.800000e+000 4.800000e+000 1.500000e+000
      endloop
   endfacet
   facet normal 0.000000e+000 0.000000e+000 1.000000e+000
      outer loop
         vertex -4.800000e+000 4.800000e+000 1.500000e+000
         vertex 5.000000e+000 5.000000e+000 1.500000e+000
         vertex -5.000000e+000 5.000000e+000 1.500000e+000
      endloop
   endfacet
   facet normal 0.000000e+000 0.000000e+000 1.000000e+000
      outer loop
         vertex -4.800000e+000 4.800000e+000 1.500000e+000
         vertex -5.000000e+000 5.000000e+000 1.500000e+000
         vertex -4.800000e+000 -4.800000e+000 1.500000e+000
      endloop
   endfacet
   facet normal 0.000000e+000 0.000000e+000 1.000000e+000
      outer loop
         vertex -4.800000e+000 -4.800000e+000 1.500000e+000
         vertex -5.000000e+000 5.000000e+000 1.500000e+000
         vertex -5.000000e+000 -5.000000e+000 1.500000e+000
      endloop
   endfacet
   facet normal 0.000000e+000 0.000000e+000 1.000000e+000
      outer loop
         vertex -4.800000e+000 -4.800000e+000 1.500000e+000
         vertex -5.000000e+000 -5.000000e+000 1.500000e+000
         vertex 4.800000e+000 -4.800000e+000 1.500000e+000
      endloop
   endfacet
   facet normal 0.000000e+000 0.000000e+000 1.000000e+000
      outer loop
         vertex 4.800000e+000 -4.800000e+000 1.500000e+000
         vertex -5.000000e+000 -5.000000e+000 1.500000e+000
         vertex 5.000000e+000 -5.000000e+000 1.500000e+000
      endloop
   endfacet
   facet normal 0.000000e+000 0.000000e+000 1.000000e+000
      outer loop
         vertex 4.800000e+000 -4.800000e+000 1.500000e+000
         vertex 5.000000e+000 -5.000000e+000 1.500000e+000
         vertex 4.800000e+000 4.800000e+000 1.500000e+000
      endloop
   endfacet
   facet normal 0.000000e+000 0.000000e+000 1.000000e+000
      outer loop
         vertex 4.800000e+000 4.800000e+000 1.500000e+000
         vertex 5.000000e+000 -5.000000e+000 1.500000e+000
         vertex 5.000000e+000 5.000000e+000 1.500000e+000
      endloop
   endfacet
   facet normal 0.000000e+000 0.000000e+000 -1.000000e+000
      outer loop
         vertex 4.800000e+000 4.800000e+000 0.000000e+000
         vertex 5.000000e+000 5.000000e+000 0.000000e+000
         vertex 4.800000e+000 -4.800000e+000 0.000000e+000
      endloop
   endfacet
   facet normal 0.000000e+000 0.000000e+000 -1.000000e+000
      outer loop
         vertex 4.800000e+000 -4.800000e+000 0.000000e+000
         vertex 5.000000e+000 5.000000e+000 0.000000e+000
         vertex 5.000000e+000 -5.000000e+000 0.000000e+000
      endloop
   endfacet
   facet normal 0.000000e+000 0.000000e+000 -1.000000e+000
      outer loop
         vertex 4.800000e+000 -4.800000e+000 0.000000e+000
         vertex 5.000000e+000 -5.000000e+000 0.000000e+000
         vertex -4.800000e+000 -4.800000e+000 0.000000e+000
      endloop
   endfacet
   facet normal 0.000000e+000 0.000000e+000 -1.000000e+000
      outer loop
         vertex -4.800000e+000 -4.800000e+000 0.000000e+000
         vertex 5.000000e+000 -5.000000e+000 0.000000e+000
         vertex -5.000000e+000 -5.000000e+000 0.000000e+000
      endloop
   endfacet
   facet normal 0.000000e+000 0.000000e+000 -1.000000e+000
      outer loop
         vertex -4.800000e+000 -4.800000e+000 0.000000e+000
         vertex -5.000000e+000 -5.000000e+000 0.000000e+000
         vertex -4.800000e+000 4.800000e+000 0.000000e+000
      endloop
   endfacet
   facet normal 0.000000e+000 0.000000e+000 -1.000000e+000
      outer loop
         vertex -4.800000e+000 4.800000e+000 0.000000e+000
         vertex -5.000000e+000 -5.000000e+000 0.000000e+000
         vertex -5.000000e+000 5.000000e+000 0.000000e+000
      endloop
   endfacet
   facet normal 0.000000e+000 0.000000e+000 -1.000000e+000
      outer loop
         vertex -4.800000e+000 4.800000e+000 0.000000e+000
         vertex -5.000000e+000 5.000000e+000 0.000000e+000
         vertex 4.800000e+000 4.800000e+000 0.000000e+000
      endloop
   endfacet
   facet normal 0.000000e+000 0.000000e+000 -1.000000e+000
      outer loop
         vertex 4.800000e+000 4.800000e+000 0.000000e+000
         vertex -5.000000e+000 5.000000e+000 0.000000e+000
         vertex 5.000000e+000 5.000000e+000 0.000000e+000
      endloop
   endfacet
   facet normal -1.000000e+000 -8.881784e-017 0.000000e+000
      outer loop
         vertex -5.000000e+000 -5.000000e+000 1.500000e+000
         vertex -5.000000e+000 5.000000e+000 1.500000e+000
         vertex -5.000000e+000 -5.000000e+000 0.000000e+000
      endloop
   endfacet
   facet normal -1.000000e+000 -8.881784e-017 0.000000e+000
      outer loop
         vertex -5.000000e+000 -5.000000e+000 0.000000e+000
         vertex -5.000000e+000 5.000000e+000 1.500000e+000
         vertex -5.000000e+000 5.000000e+000 0.000000e+000
      endloop
   endfacet
   facet normal 0.000000e+000 -1.000000e+000 0.000000e+000
      outer loop
         vertex 5.000000e+000 -5.000000e+000 1.500000e+000
         vertex -5.000000e+000 -5.000000e+000 1.500000e+000
         vertex 5.000000e+000 -5.000000e+000 0.000000e+000
      endloop
   endfacet
   facet normal 0.000000e+000 -1.000000e+000 0.000000e+000
      outer loop
         vertex 5.000000e+000 -5.000000e+000 0.000000e+000
         vertex -5.000000e+000 -5.000000e+000 1.500000e+000
         vertex -5.000000e+000 -5.000000e+000 0.000000e+000
      endloop
   endfacet
   facet normal 1.000000e+000 1.776357e-016 0.000000e+000
      outer loop
         vertex 5.000000e+000 5.000000e+000 1.500000e+000
         vertex 5.000000e+000 -5.000000e+000 1.500000e+000
         vertex 5.000000e+000 5.000000e+000 0.000000e+000
      endloop
   endfacet
   facet normal 1.000000e+000 1.776357e-016 0.000000e+000
      outer loop
         vertex 5.000000e+000 5.000000e+000 0.000000e+000
         vertex 5.000000e+000 -5.000000e+000 1.500000e+000
         vertex 5.000000e+000 -5.000000e+000 0.000000e+000
      endloop
   endfacet
   facet normal 0.000000e+000 1.000000e+000 0.000000e+000
      outer loop
         vertex -5.000000e+000 5.000000e+000 1.500000e+000
         vertex 5.000000e+000 5.000000e+000 1.500000e+000
         vertex -5.000000e+000 5.000000e+000 0.000000e+000
      endloop
   endfacet
   facet normal 0.000000e+000 1.000000e+000 0.000000e+000
      outer loop
         vertex -5.000000e+000 5.000000e+000 0.000000e+000
         vertex 5.000000e+000 5.000000e+000 1.500000e+000
         vertex 5.000000e+000 5.000000e+000 0.000000e+000
      endloop
   endfacet
   facet normal 1.000000e+000 8.881784e-017 0.000000e+000
      outer loop
         vertex -4.800000e+000 4.800000e+000 1.500000e+000
         vertex -4.800000e+000 -4.800000e+000 1.500000e+000
         vertex -4.800000e+000 4.800000e+000 0.000000e+000
      endloop
   endfacet
   facet normal 1.000000e+000 8.881784e-017 0.000000e+000
      outer loop
         vertex -4.800000e+000 4.800000e+000 0.000000e+000
         vertex -4.800000e+000 -4.800000e+000 1.500000e+000
         vertex -4.800000e+000 -4.800000e+000 0.000000e+000
      endloop
   endfacet
   facet normal 0.000000e+000 1.000000e+000 0.000000e+000
      outer loop
         vertex -4.800000e+000 -4.800000e+000 1.500000e+000
         vertex 4.800000e+000 -4.800000e+000 1.500000e+000
         vertex -4.800000e+000 -4.800000e+000 0.000000e+000
      endloop
   endfacet
   facet normal 0.000000e+000 1.000000e+000 0.000000e+000
      outer loop
         vertex -4.800000e+000 -4.800000e+000 0.000000e+000
         vertex 4.800000e+000 -4.800000e+000 1.500000e+000
         vertex 4.800000e+000 -4.800000e+000 0.000000e+000
      endloop
   endfacet
   facet normal -1.000000e+000 -1.776357e-016 0.000000e+000
      outer loop
         vertex 4.800000e+000 -4.800000e+000 1.500000e+000
         vertex 4.800000e+000 4.800000e+000 1.500000e+000
         vertex 4.800000e+000 -4.800000e+000 0.000000e+000
      endloop
   endfacet
   facet normal -1.000000e+000 -1.776357e-016 0.000000e+000
      outer loop
         vertex 4.800000e+000 -4.800000e+000 0.000000e+000
         vertex 4.800000e+000 4.800000e+000 1.500000e+000
         vertex 4.800000e+000 4.800000e+000 0.000000e+000
      endloop
   endfacet
   facet normal 0.000000e+000 -1.000000e+000 0.000000e+000
      outer loop
         vertex 4.800000e+000 4.800000e+000 1.500000e+000
         vertex -4.800000e+000 4.800000e+000 1.500000e+000
         vertex 4.800000e+000 4.800000e+000 0.000000e+000
      endloop
   endfacet
   facet normal 0.000000e+000 -1.000000e+000 0.000000e+000
      outer loop
         vertex 4.800000e+000 4.800000e+000 0.000000e+000
         vertex -4.800000e+000 4.800000e+000 1.500000e+000
         vertex -4.800000e+000 4.800000e+000 0.000000e+000
      endloop
   endfacet
endsolid